<svg xmlns="http://www.w3.org/2000/svg" width="1600" height="1600" viewBox="0 0 1000 1000"><defs><radialGradient id="bgc" cx="50%" cy="42%" r="62%"><stop offset="0%" stop-color="#16141b"/><stop offset="100%" stop-color="#08070b"/></radialGradient><linearGradient id="brass" x1="0" y1="0" x2="0" y2="1"><stop offset="0%" stop-color="#f6e9b0"/><stop offset="55%" stop-color="#c69b33"/><stop offset="100%" stop-color="#8a6b1f"/></linearGradient><linearGradient id="rgc" x1="0" y1="0" x2="0" y2="1"><stop offset="0%" stop-color="#fff3c4"/><stop offset="50%" stop-color="#d4af37"/><stop offset="100%" stop-color="#9c7b22"/></linearGradient><radialGradient id="hc" cx="38%" cy="30%" r="80%"><stop offset="0%" stop-color="#ff7a7e"/><stop offset="45%" stop-color="#e51f2b"/><stop offset="100%" stop-color="#8c0d15"/></radialGradient></defs><circle cx="500" cy="500" r="486" fill="url(#rgc)"/><circle cx="500" cy="500" r="452" fill="url(#bgc)"/><circle cx="500" cy="500" r="452" fill="none" stroke="#9c7b22" stroke-width="5"/><g transform="translate(300,560)">
      <rect x="-46" y="-150" width="92" height="200" rx="14" fill="#b3361f"/>
      <rect x="-46" y="-150" width="92" height="200" rx="14" fill="none" stroke="#7a2414" stroke-width="3"/>
      <rect x="-50" y="30" width="100" height="92" rx="10" fill="url(#brass)" stroke="#7a5a16" stroke-width="3"/>
      <ellipse cx="0" cy="46" rx="30" ry="12" fill="none" stroke="#7a5a16" stroke-width="4"/>
      <text x="0" y="-30" font-family="'Liberation Sans','DejaVu Sans',Arial,sans-serif" font-weight="bold" font-size="120" text-anchor="middle" fill="#fff">Y</text>
    </g><g transform="translate(500,560)">
      <rect x="-46" y="-150" width="92" height="200" rx="14" fill="#b3361f"/>
      <rect x="-46" y="-150" width="92" height="200" rx="14" fill="none" stroke="#7a2414" stroke-width="3"/>
      <rect x="-50" y="30" width="100" height="92" rx="10" fill="url(#brass)" stroke="#7a5a16" stroke-width="3"/>
      <ellipse cx="0" cy="46" rx="30" ry="12" fill="none" stroke="#7a5a16" stroke-width="4"/>
      <text x="0" y="-30" font-family="'Liberation Sans','DejaVu Sans',Arial,sans-serif" font-weight="bold" font-size="120" text-anchor="middle" fill="#fff">R</text>
    </g><g transform="translate(700,560)">
      <rect x="-46" y="-150" width="92" height="200" rx="14" fill="#b3361f"/>
      <rect x="-46" y="-150" width="92" height="200" rx="14" fill="none" stroke="#7a2414" stroke-width="3"/>
      <rect x="-50" y="30" width="100" height="92" rx="10" fill="url(#brass)" stroke="#7a5a16" stroke-width="3"/>
      <ellipse cx="0" cy="46" rx="30" ry="12" fill="none" stroke="#7a5a16" stroke-width="4"/>
      <text x="0" y="-30" font-family="'Liberation Sans','DejaVu Sans',Arial,sans-serif" font-weight="bold" font-size="120" text-anchor="middle" fill="#fff">K</text>
    </g><g transform="translate(500,250) scale(1.15)"><path d="M0,56 C-31,26 -54,6 -54,-16 C-54,-37 -31,-47 -12,-31 C-6,-26 0,-17 0,-11 C0,-17 6,-26 12,-31 C31,-47 54,-37 54,-16 C54,6 31,26 0,56 Z" fill="url(#hc)" stroke="#8c0d15" stroke-width="2.5"/><path d="M-30,-22 C-40,-6 -34,12 -16,22 C-30,4 -26,-12 -12,-22 C-22,-26 -27,-25 -30,-22 Z" fill="#fff" opacity=".35"/></g><g font-family="'Liberation Sans','DejaVu Sans',Arial,sans-serif" font-weight="bold" font-size="44" fill="#f5e6ac" text-anchor="middle"><text x="109.8" y="410.4" transform="rotate(-75.00 109.8 395.4)">Y</text><text x="129.0" y="354.9" transform="rotate(-66.67 129.0 340.0)">A</text><text x="156.1" y="302.9" transform="rotate(-58.33 156.1 287.9)">N</text><text x="190.5" y="255.3" transform="rotate(-50.00 190.5 240.3)">N</text><text x="278.0" y="177.4" transform="rotate(-33.33 278.0 162.5)">·</text><text x="384.1" y="127.9" transform="rotate(-16.67 384.1 113.0)">R</text><text x="441.4" y="115.2" transform="rotate(-8.33 441.4 100.3)">É</text><text x="500.0" y="111.0" transform="rotate(0.00 500.0 96.0)">M</text><text x="558.6" y="115.2" transform="rotate(8.33 558.6 100.3)">Y</text><text x="670.7" y="148.8" transform="rotate(25.00 670.7 133.9)">·</text><text x="768.6" y="213.2" transform="rotate(41.67 768.6 198.2)">K</text><text x="809.5" y="255.3" transform="rotate(50.00 809.5 240.3)">E</text><text x="843.9" y="302.9" transform="rotate(58.33 843.9 287.9)">V</text><text x="871.0" y="354.9" transform="rotate(66.67 871.0 340.0)">I</text><text x="890.2" y="410.4" transform="rotate(75.00 890.2 395.4)">N</text></g><linearGradient id="ribe" x1="0" y1="0" x2="0" y2="1"><stop offset="0%" stop-color="#fff3c4"/><stop offset="100%" stop-color="#d4af37"/></linearGradient><path d="M314,762 L282,776 L282,858 L314,840 Z" fill="#8c0d15"/><path d="M686,762 L718,776 L718,858 L686,840 Z" fill="#8c0d15"/><rect x="314" y="754" width="372" height="92" fill="url(#ribe)" stroke="#8c0d15" stroke-width="3"/><text x="500" y="818" font-family="'Liberation Sans','DejaVu Sans',Arial,sans-serif" font-weight="bold" font-size="50" letter-spacing="2" text-anchor="middle" fill="#15140f">LA DÉTENTE</text></svg>