<svg xmlns="http://www.w3.org/2000/svg" width="1600" height="1600" viewBox="0 0 1000 1000"><defs><radialGradient id="mbpp3" cx="50%" cy="42%" r="62%"><stop offset="0%" stop-color="#1b1810"/><stop offset="70%" stop-color="#0c0a06"/><stop offset="100%" stop-color="#040302"/></radialGradient><linearGradient id="mgp3" x1="0" y1="0" x2="0" y2="1"><stop offset="0%" stop-color="#fff7d6"/><stop offset="20%" stop-color="#f3d98a"/><stop offset="50%" stop-color="#d8b23f"/><stop offset="78%" stop-color="#a87f24"/><stop offset="100%" stop-color="#6e4f12"/></linearGradient><radialGradient id="mhpp3" cx="38%" cy="30%" r="80%"><stop offset="0%" stop-color="#ff7a7e"/><stop offset="45%" stop-color="#e51f2b"/><stop offset="100%" stop-color="#8c0d15"/></radialGradient></defs><circle cx="500" cy="500" r="492" fill="url(#mgp3)"/><circle cx="500" cy="500" r="492" fill="none" stroke="#3a2908" stroke-width="3"/><circle cx="500" cy="500" r="470" fill="none" stroke="#fff7d6" stroke-width="2" opacity=".6"/><circle cx="500" cy="500" r="452" fill="url(#mbpp3)"/><circle cx="500" cy="500" r="452" fill="none" stroke="url(#mgp3)" stroke-width="6"/><circle cx="949.0" cy="500.0" r="6" fill="url(#mgp3)" stroke="#6e4f12" stroke-width="1"/><circle cx="888.8" cy="724.5" r="6" fill="url(#mgp3)" stroke="#6e4f12" stroke-width="1"/><circle cx="724.5" cy="888.8" r="6" fill="url(#mgp3)" stroke="#6e4f12" stroke-width="1"/><circle cx="500.0" cy="949.0" r="6" fill="url(#mgp3)" stroke="#6e4f12" stroke-width="1"/><circle cx="275.5" cy="888.8" r="6" fill="url(#mgp3)" stroke="#6e4f12" stroke-width="1"/><circle cx="111.2" cy="724.5" r="6" fill="url(#mgp3)" stroke="#6e4f12" stroke-width="1"/><circle cx="51.0" cy="500.0" r="6" fill="url(#mgp3)" stroke="#6e4f12" stroke-width="1"/><circle cx="111.2" cy="275.5" r="6" fill="url(#mgp3)" stroke="#6e4f12" stroke-width="1"/><circle cx="275.5" cy="111.2" r="6" fill="url(#mgp3)" stroke="#6e4f12" stroke-width="1"/><circle cx="500.0" cy="51.0" r="6" fill="url(#mgp3)" stroke="#6e4f12" stroke-width="1"/><circle cx="724.5" cy="111.2" r="6" fill="url(#mgp3)" stroke="#6e4f12" stroke-width="1"/><circle cx="888.8" cy="275.5" r="6" fill="url(#mgp3)" stroke="#6e4f12" stroke-width="1"/><g font-family="'Liberation Sans','DejaVu Sans',Arial,sans-serif" font-weight="bold" text-anchor="middle" fill="url(#mgp3)" stroke="#3a2908" stroke-width="3">
     <text x="352" y="606" font-size="300">Y</text><text x="648" y="606" font-size="300">K</text><text x="500" y="648" font-size="392">R</text></g><g transform="translate(500,316) scale(1.22)"><path d="M0,56 C-31,26 -54,6 -54,-16 C-54,-37 -31,-47 -12,-31 C-6,-26 0,-17 0,-11 C0,-17 6,-26 12,-31 C31,-47 54,-37 54,-16 C54,6 31,26 0,56 Z" fill="url(#mhpp3)" stroke="#8c0d15" stroke-width="2.5"/><path d="M-30,-22 C-40,-6 -34,12 -16,22 C-30,4 -26,-12 -12,-22 C-22,-26 -27,-25 -30,-22 Z" fill="#fff" opacity=".35"/></g><g><ellipse cx="387.6" cy="838.2" rx="8" ry="19" transform="rotate(202.0 387.6 838.2)" fill="url(#mgp3)" stroke="#6e4f12" stroke-width="1"/><ellipse cx="612.4" cy="838.2" rx="8" ry="19" transform="rotate(-22.0 612.4 838.2)" fill="url(#mgp3)" stroke="#6e4f12" stroke-width="1"/><ellipse cx="327.9" cy="805.7" rx="8" ry="19" transform="rotate(215.0 327.9 805.7)" fill="url(#mgp3)" stroke="#6e4f12" stroke-width="1"/><ellipse cx="672.1" cy="805.7" rx="8" ry="19" transform="rotate(-35.0 672.1 805.7)" fill="url(#mgp3)" stroke="#6e4f12" stroke-width="1"/><ellipse cx="277.1" cy="760.7" rx="8" ry="19" transform="rotate(228.0 277.1 760.7)" fill="url(#mgp3)" stroke="#6e4f12" stroke-width="1"/><ellipse cx="722.9" cy="760.7" rx="8" ry="19" transform="rotate(-48.0 722.9 760.7)" fill="url(#mgp3)" stroke="#6e4f12" stroke-width="1"/><ellipse cx="237.6" cy="705.4" rx="8" ry="19" transform="rotate(241.0 237.6 705.4)" fill="url(#mgp3)" stroke="#6e4f12" stroke-width="1"/><ellipse cx="762.4" cy="705.4" rx="8" ry="19" transform="rotate(-61.0 762.4 705.4)" fill="url(#mgp3)" stroke="#6e4f12" stroke-width="1"/><ellipse cx="211.6" cy="642.7" rx="8" ry="19" transform="rotate(254.0 211.6 642.7)" fill="url(#mgp3)" stroke="#6e4f12" stroke-width="1"/><ellipse cx="788.4" cy="642.7" rx="8" ry="19" transform="rotate(-74.0 788.4 642.7)" fill="url(#mgp3)" stroke="#6e4f12" stroke-width="1"/><ellipse cx="200.4" cy="575.7" rx="8" ry="19" transform="rotate(267.0 200.4 575.7)" fill="url(#mgp3)" stroke="#6e4f12" stroke-width="1"/><ellipse cx="799.6" cy="575.7" rx="8" ry="19" transform="rotate(-87.0 799.6 575.7)" fill="url(#mgp3)" stroke="#6e4f12" stroke-width="1"/><ellipse cx="204.6" cy="507.9" rx="8" ry="19" transform="rotate(280.0 204.6 507.9)" fill="url(#mgp3)" stroke="#6e4f12" stroke-width="1"/><ellipse cx="795.4" cy="507.9" rx="8" ry="19" transform="rotate(-100.0 795.4 507.9)" fill="url(#mgp3)" stroke="#6e4f12" stroke-width="1"/><ellipse cx="223.8" cy="442.8" rx="8" ry="19" transform="rotate(293.0 223.8 442.8)" fill="url(#mgp3)" stroke="#6e4f12" stroke-width="1"/><ellipse cx="776.2" cy="442.8" rx="8" ry="19" transform="rotate(-113.0 776.2 442.8)" fill="url(#mgp3)" stroke="#6e4f12" stroke-width="1"/></g><g font-family="'Liberation Sans','DejaVu Sans',Arial,sans-serif" font-weight="bold" font-size="42" fill="url(#mgp3)" text-anchor="middle"><text x="84.7" y="403.0" transform="rotate(-75.00 84.7 388.7)">Y</text><text x="105.2" y="344.0" transform="rotate(-66.67 105.2 329.7)">A</text><text x="134.0" y="288.5" transform="rotate(-58.33 134.0 274.3)">N</text><text x="170.6" y="237.9" transform="rotate(-50.00 170.6 223.6)">N</text><text x="263.7" y="155.0" transform="rotate(-33.33 263.7 140.7)">·</text><text x="376.7" y="102.3" transform="rotate(-16.67 376.7 88.1)">R</text><text x="437.7" y="88.8" transform="rotate(-8.33 437.7 74.5)">É</text><text x="500.0" y="84.3" transform="rotate(0.00 500.0 70.0)">M</text><text x="562.3" y="88.8" transform="rotate(8.33 562.3 74.5)">Y</text><text x="681.7" y="124.6" transform="rotate(25.00 681.7 110.3)">·</text><text x="785.9" y="193.1" transform="rotate(41.67 785.9 178.8)">K</text><text x="829.4" y="237.9" transform="rotate(50.00 829.4 223.6)">E</text><text x="866.0" y="288.5" transform="rotate(58.33 866.0 274.3)">V</text><text x="894.8" y="344.0" transform="rotate(66.67 894.8 329.7)">I</text><text x="915.3" y="403.0" transform="rotate(75.00 915.3 388.7)">N</text></g><g font-family="'Liberation Sans','DejaVu Sans',Arial,sans-serif" font-weight="bold" font-size="56" fill="url(#mgp3)" text-anchor="middle"><text x="95.9" y="666.1" transform="rotate(70.00 95.9 647.1)">L</text><text x="150.2" y="769.1" transform="rotate(54.44 150.2 750.0)">A</text><text x="329.7" y="913.9" transform="rotate(23.33 329.7 894.8)">D</text><text x="441.8" y="945.1" transform="rotate(7.78 441.8 926.0)">É</text><text x="558.2" y="945.1" transform="rotate(-7.78 558.2 926.0)">T</text><text x="670.3" y="913.9" transform="rotate(-23.33 670.3 894.8)">E</text><text x="770.0" y="853.7" transform="rotate(-38.89 770.0 834.7)">N</text><text x="849.8" y="769.1" transform="rotate(-54.44 849.8 750.0)">T</text><text x="904.1" y="666.1" transform="rotate(-70.00 904.1 647.1)">E</text></g><path d="M150,300 A492,492 0 0 1 850,300" fill="none" stroke="#fff" stroke-opacity=".14" stroke-width="12" stroke-linecap="round"/></svg>