<svg xmlns="http://www.w3.org/2000/svg" width="1600" height="1600" viewBox="0 0 1000 1000"><defs><linearGradient id="cgh" x1="0" y1="0" x2="0" y2="1"><stop offset="0%" stop-color="#fff3c4"/><stop offset="50%" stop-color="#d4af37"/><stop offset="100%" stop-color="#9c7b22"/></linearGradient><linearGradient id="cbh" x1="0" y1="0" x2="0" y2="1"><stop offset="0%" stop-color="#16141b"/><stop offset="100%" stop-color="#08070b"/></linearGradient><radialGradient id="hxh" cx="38%" cy="30%" r="80%"><stop offset="0%" stop-color="#ff7a7e"/><stop offset="45%" stop-color="#e51f2b"/><stop offset="100%" stop-color="#8c0d15"/></radialGradient></defs><path d="M500,52 L884,235 L884,612 C884,792 712,890 500,944 C288,890 116,792 116,612 L116,235 Z" fill="url(#cbh)" stroke="url(#cgh)" stroke-width="16" stroke-linejoin="round"/><path d="M500,96 L840,260 L840,604 C840,766 690,856 500,906 C310,856 160,766 160,604 L160,260 Z" fill="none" stroke="url(#cgh)" stroke-width="4" opacity=".55"/><text x="500" y="300" font-family="'Liberation Sans','DejaVu Sans',Arial,sans-serif" font-weight="bold" font-size="150" letter-spacing="14" text-anchor="middle" fill="url(#cgh)" stroke="#9c7b22" stroke-width="2">Y·R·K</text><g transform="translate(500,560) rotate(-28) scale(1.0) translate(-183,-88)" opacity=".95"><g fill="url(#cgh)" stroke="#9c7b22" stroke-width="2" stroke-linejoin="round">
   <polygon points="0,44 62,30 62,74 34,82 0,72"/><rect x="60" y="30" width="130" height="38" rx="3"/>
   <rect x="92" y="19" width="100" height="10" rx="3"/><polygon points="118,68 140,68 153,116 126,118"/>
   <path d="M150,68 L190,68 L202,156 Q184,162 166,156 Z"/><rect x="190" y="38" width="76" height="26" rx="5"/>
   <rect x="266" y="46" width="96" height="10" rx="3"/><polygon points="300,21 310,21 308,46 302,46"/><rect x="352" y="43" width="15" height="15" rx="2"/></g></g><g transform="translate(500,560) rotate(28) scale(1.0) translate(-183,-77)" opacity=".95"><g fill="url(#cgh)" stroke-linejoin="round"><path d="M0,56 L58,40 L114,48 L114,98 L74,100 L44,114 L10,100 Z"/><rect x="108" y="40" width="48" height="48" rx="5"/><rect x="150" y="40" width="210" height="11" rx="3"/><rect x="150" y="56" width="210" height="11" rx="3"/><rect x="150" y="72" width="74" height="17" rx="7"/><rect x="354" y="38" width="11" height="31" rx="2"/></g></g><g transform="translate(500,560) scale(1.55)"><path d="M0,56 C-31,26 -54,6 -54,-16 C-54,-37 -31,-47 -12,-31 C-6,-26 0,-17 0,-11 C0,-17 6,-26 12,-31 C31,-47 54,-37 54,-16 C54,6 31,26 0,56 Z" fill="url(#hxh)" stroke="#8c0d15" stroke-width="2.5"/><path d="M-30,-22 C-40,-6 -34,12 -16,22 C-30,4 -26,-12 -12,-22 C-22,-26 -27,-25 -30,-22 Z" fill="#fff" opacity=".35"/></g><linearGradient id="ribcrh" x1="0" y1="0" x2="0" y2="1"><stop offset="0%" stop-color="#fff3c4"/><stop offset="100%" stop-color="#d4af37"/></linearGradient><path d="M304,782 L272,796 L272,878 L304,860 Z" fill="#8c0d15"/><path d="M696,782 L728,796 L728,878 L696,860 Z" fill="#8c0d15"/><rect x="304" y="774" width="392" height="92" fill="url(#ribcrh)" stroke="#8c0d15" stroke-width="3"/><text x="500" y="838" font-family="'Liberation Sans','DejaVu Sans',Arial,sans-serif" font-weight="bold" font-size="50" letter-spacing="2" text-anchor="middle" fill="#15140f">LA DÉTENTE</text></svg>