<svg xmlns="http://www.w3.org/2000/svg" width="1600" height="1600" viewBox="0 0 1000 1000"><defs><radialGradient id="mhi" cx="38%" cy="30%" r="80%"><stop offset="0%" stop-color="#ff6a6f"/><stop offset="45%" stop-color="#e51f2b"/><stop offset="100%" stop-color="#8c0d15"/></radialGradient></defs><g font-family="'Liberation Sans','DejaVu Sans',Arial,sans-serif" font-weight="bold" text-anchor="middle">
     <text x="332" y="600" font-size="360" fill="#c7ccd4" stroke="#8c0d15" stroke-width="3" opacity=".96">Y</text>
     <text x="668" y="600" font-size="360" fill="#c7ccd4" stroke="#8c0d15" stroke-width="3" opacity=".96">K</text>
     <text x="500" y="640" font-size="430" fill="#c7ccd4" stroke="#8c0d15" stroke-width="4">R</text></g><g transform="translate(500,300) scale(1.35)"><path d="M0,56 C-31,26 -54,6 -54,-16 C-54,-37 -31,-47 -12,-31 C-6,-26 0,-17 0,-11 C0,-17 6,-26 12,-31 C31,-47 54,-37 54,-16 C54,6 31,26 0,56 Z" fill="url(#mhi)" stroke="#8c0d15" stroke-width="2.5"/><path d="M-30,-22 C-40,-6 -34,12 -16,22 C-30,4 -26,-12 -12,-22 C-22,-26 -27,-25 -30,-22 Z" fill="#fff" opacity=".35"/></g><text x="500" y="820" font-family="'Liberation Sans','DejaVu Sans',Arial,sans-serif" font-weight="bold" font-size="64" letter-spacing="6" text-anchor="middle" fill="#c7ccd4">LA DÉTENTE</text></svg>