<svg xmlns="http://www.w3.org/2000/svg" width="1600" height="1600" viewBox="0 0 1000 1000"><defs><linearGradient id="cbg" x1="0" y1="0" x2="0" y2="1"><stop offset="0%" stop-color="#283019"/><stop offset="100%" stop-color="#141a0d"/></linearGradient><radialGradient id="hxg" cx="38%" cy="30%" r="80%"><stop offset="0%" stop-color="#ff6a63"/><stop offset="45%" stop-color="#d72a25"/><stop offset="100%" stop-color="#7c1311"/></radialGradient></defs><path d="M500,52 L884,235 L884,612 C884,792 712,890 500,944 C288,890 116,792 116,612 L116,235 Z" fill="url(#cbg)" stroke="#6f7c3f" stroke-width="16" stroke-linejoin="round"/><path d="M500,96 L840,260 L840,604 C840,766 690,856 500,906 C310,856 160,766 160,604 L160,260 Z" fill="none" stroke="#6f7c3f" stroke-width="4" opacity=".55"/><text x="500" y="300" font-family="'Liberation Sans','DejaVu Sans',Arial,sans-serif" font-weight="bold" font-size="150" letter-spacing="14" text-anchor="middle" fill="#6a7540" stroke="#3d4824" stroke-width="2">Y·R·K</text><g transform="translate(500,560) rotate(-28) scale(1.0) translate(-183,-88)" opacity=".95"><g fill="#6a7540" stroke="#3d4824" stroke-width="2" stroke-linejoin="round">
   <polygon points="0,44 62,30 62,74 34,82 0,72"/><rect x="60" y="30" width="130" height="38" rx="3"/>
   <rect x="92" y="19" width="100" height="10" rx="3"/><polygon points="118,68 140,68 153,116 126,118"/>
   <path d="M150,68 L190,68 L202,156 Q184,162 166,156 Z"/><rect x="190" y="38" width="76" height="26" rx="5"/>
   <rect x="266" y="46" width="96" height="10" rx="3"/><polygon points="300,21 310,21 308,46 302,46"/><rect x="352" y="43" width="15" height="15" rx="2"/></g></g><g transform="translate(500,560) rotate(28) scale(1.0) translate(-183,-77)" opacity=".95"><g fill="#6a7540" stroke-linejoin="round"><path d="M0,56 L58,40 L114,48 L114,98 L74,100 L44,114 L10,100 Z"/><rect x="108" y="40" width="48" height="48" rx="5"/><rect x="150" y="40" width="210" height="11" rx="3"/><rect x="150" y="56" width="210" height="11" rx="3"/><rect x="150" y="72" width="74" height="17" rx="7"/><rect x="354" y="38" width="11" height="31" rx="2"/></g></g><g transform="translate(500,560) scale(1.55)"><path d="M0,56 C-31,26 -54,6 -54,-16 C-54,-37 -31,-47 -12,-31 C-6,-26 0,-17 0,-11 C0,-17 6,-26 12,-31 C31,-47 54,-37 54,-16 C54,6 31,26 0,56 Z" fill="url(#hxg)" stroke="#7c1311" stroke-width="2.5"/></g><path d="M304,782 L272,796 L272,878 L304,860 Z" fill="#7c1311"/><path d="M696,782 L728,796 L728,878 L696,860 Z" fill="#7c1311"/><rect x="304" y="774" width="392" height="92" fill="#d72a25" stroke="#7c1311" stroke-width="3"/><text x="500" y="838" font-family="'Liberation Sans','DejaVu Sans',Arial,sans-serif" font-weight="bold" font-size="50" letter-spacing="2" text-anchor="middle" fill="#fff">LA DÉTENTE</text></svg>