<svg xmlns="http://www.w3.org/2000/svg" width="2000" height="1125" viewBox="0 0 1600 900"><defs><linearGradient id="bgL" x1="0" y1="0" x2="0" y2="1"><stop offset="0%" stop-color="#16171c"/><stop offset="100%" stop-color="#070809"/></linearGradient><linearGradient id="wm" x1="0" y1="0" x2="0" y2="1"><stop offset="0%" stop-color="#fff"/><stop offset="100%" stop-color="#c7ccd4"/></linearGradient><radialGradient id="hl" cx="38%" cy="30%" r="80%"><stop offset="0%" stop-color="#ff6a6f"/><stop offset="45%" stop-color="#e51f2b"/><stop offset="100%" stop-color="#8c0d15"/></radialGradient></defs><rect width="1600" height="900" fill="url(#bgL)"/><rect x="40" y="40" width="1520" height="820" rx="26" fill="none" stroke="#fff" stroke-opacity=".08" stroke-width="3"/><text x="430" y="500" font-family="'Liberation Sans','DejaVu Sans',Arial,sans-serif" font-weight="bold" font-size="300" text-anchor="middle" fill="url(#wm)">Y</text><g transform="translate(800,420) scale(2)"><path d="M0,56 C-31,26 -54,6 -54,-16 C-54,-37 -31,-47 -12,-31 C-6,-26 0,-17 0,-11 C0,-17 6,-26 12,-31 C31,-47 54,-37 54,-16 C54,6 31,26 0,56 Z" fill="url(#hl)" stroke="#8c0d15" stroke-width="2.5"/></g><text x="1170" y="500" font-family="'Liberation Sans','DejaVu Sans',Arial,sans-serif" font-weight="bold" font-size="300" text-anchor="middle" fill="url(#wm)">K</text><text x="800" y="500" font-family="'Liberation Sans','DejaVu Sans',Arial,sans-serif" font-weight="bold" font-size="300" text-anchor="middle" fill="url(#wm)" opacity="0">R</text><g transform="translate(40,0)"><rect x="380" y="560" width="800" height="6" fill="#e51f2b"/></g><text x="800" y="660" font-family="'Liberation Sans','DejaVu Sans',Arial,sans-serif" font-weight="bold" font-size="120" text-anchor="middle" fill="url(#wm)">R</text><text x="800" y="250" font-family="'Liberation Sans','DejaVu Sans',Arial,sans-serif" font-weight="bold" font-size="60" letter-spacing="8" text-anchor="middle" fill="#e51f2b">YANN · RÉMY · KEVIN</text><text x="800" y="770" font-family="'Liberation Sans','DejaVu Sans',Arial,sans-serif" font-weight="bold" font-size="58" letter-spacing="10" text-anchor="middle" fill="#c9ccd3">LA DÉTENTE</text><text x="800" y="828" font-family="'Liberation Sans','DejaVu Sans',Arial,sans-serif" font-weight="bold" font-size="34" letter-spacing="9" text-anchor="middle" fill="#7d848f">TIR · BALL-TRAP · CHASSE</text></svg>