<svg xmlns="http://www.w3.org/2000/svg" width="1600" height="1600" viewBox="0 0 1000 1000"><defs><radialGradient id="bgb" cx="50%" cy="42%" r="62%"><stop offset="0%" stop-color="#283019"/><stop offset="100%" stop-color="#141a0d"/></radialGradient><radialGradient id="hb" cx="38%" cy="30%" r="80%"><stop offset="0%" stop-color="#ff6a63"/><stop offset="45%" stop-color="#d72a25"/><stop offset="100%" stop-color="#7c1311"/></radialGradient></defs><circle cx="500" cy="500" r="486" fill="#6f7c3f"/><circle cx="500" cy="500" r="486" fill="none" stroke="#3d4824" stroke-width="6"/><circle cx="500" cy="500" r="452" fill="url(#bgb)"/><circle cx="500" cy="500" r="452" fill="none" stroke="#efe9d2" stroke-width="4" stroke-dasharray="2 11" stroke-linecap="round" opacity=".85"/><g transform="translate(500,520) rotate(-18) scale(1.5) translate(-183,-88)" opacity="0.20"><g fill="#6a7540" stroke="none" stroke-width="0" stroke-linejoin="round">
   <polygon points="0,44 62,30 62,74 34,82 0,72"/><rect x="60" y="30" width="130" height="38" rx="3"/>
   <rect x="92" y="19" width="100" height="10" rx="3"/><polygon points="118,68 140,68 153,116 126,118"/>
   <path d="M150,68 L190,68 L202,156 Q184,162 166,156 Z"/><rect x="190" y="38" width="76" height="26" rx="5"/>
   <rect x="266" y="46" width="96" height="10" rx="3"/><polygon points="300,21 310,21 308,46 302,46"/><rect x="352" y="43" width="15" height="15" rx="2"/></g></g><g font-family="'Liberation Sans','DejaVu Sans',Arial,sans-serif" font-weight="bold" text-anchor="middle" fill="#6a7540" stroke="#3d4824" stroke-width="2">
     <text x="318" y="560" font-size="210">Y</text>
     <text x="682" y="560" font-size="210">K</text>
     <text x="500" y="600" font-size="250">R</text></g><g transform="translate(500,372) scale(1.25)"><path d="M0,56 C-31,26 -54,6 -54,-16 C-54,-37 -31,-47 -12,-31 C-6,-26 0,-17 0,-11 C0,-17 6,-26 12,-31 C31,-47 54,-37 54,-16 C54,6 31,26 0,56 Z" fill="url(#hb)" stroke="#7c1311" stroke-width="2.5"/></g><g font-family="'Liberation Sans','DejaVu Sans',Arial,sans-serif" font-weight="bold" font-size="48" fill="#efe9d2" text-anchor="middle"><text x="109.8" y="411.8" transform="rotate(-75.00 109.8 395.4)">T</text><text x="124.2" y="368.1" transform="rotate(-68.48 124.2 351.8)">I</text><text x="143.4" y="326.4" transform="rotate(-61.96 143.4 310.1)">R</text><text x="195.5" y="250.8" transform="rotate(-48.91 195.5 234.5)">·</text><text x="263.3" y="188.9" transform="rotate(-35.87 263.3 172.6)">B</text><text x="302.0" y="164.2" transform="rotate(-29.35 302.0 147.8)">A</text><text x="343.3" y="144.0" transform="rotate(-22.83 343.3 127.6)">L</text><text x="386.6" y="128.6" transform="rotate(-16.30 386.6 112.2)">L</text><text x="431.4" y="118.2" transform="rotate(-9.78 431.4 101.9)">-</text><text x="477.0" y="113.0" transform="rotate(-3.26 477.0 96.7)">T</text><text x="523.0" y="113.0" transform="rotate(3.26 523.0 96.7)">R</text><text x="568.6" y="118.2" transform="rotate(9.78 568.6 101.9)">A</text><text x="613.4" y="128.6" transform="rotate(16.30 613.4 112.2)">P</text><text x="698.0" y="164.2" transform="rotate(29.35 698.0 147.8)">·</text><text x="772.4" y="217.9" transform="rotate(42.39 772.4 201.6)">C</text><text x="804.5" y="250.8" transform="rotate(48.91 804.5 234.5)">H</text><text x="832.7" y="287.1" transform="rotate(55.43 832.7 270.8)">A</text><text x="856.6" y="326.4" transform="rotate(61.96 856.6 310.1)">S</text><text x="875.8" y="368.1" transform="rotate(68.48 875.8 351.8)">S</text><text x="890.2" y="411.8" transform="rotate(75.00 890.2 395.4)">E</text></g><path d="M314,754 L282,768 L282,850 L314,832 Z" fill="#7c1311"/><path d="M686,754 L718,768 L718,850 L686,832 Z" fill="#7c1311"/><rect x="314" y="746" width="372" height="92" fill="#d72a25" stroke="#7c1311" stroke-width="3"/><text x="500" y="810" font-family="'Liberation Sans','DejaVu Sans',Arial,sans-serif" font-weight="bold" font-size="50" letter-spacing="2" text-anchor="middle" fill="#fff">LA DÉTENTE</text></svg>