<svg xmlns="http://www.w3.org/2000/svg" width="1600" height="1600" viewBox="0 0 1000 1000"><defs><radialGradient id="cbpp1" cx="50%" cy="40%" r="72%"><stop offset="0%" stop-color="#1b1810"/><stop offset="68%" stop-color="#0d0b06"/><stop offset="100%" stop-color="#040302"/></radialGradient><linearGradient id="gpp1" x1="0" y1="0" x2="0" y2="1"><stop offset="0%" stop-color="#fff7d6"/><stop offset="20%" stop-color="#f3d98a"/><stop offset="50%" stop-color="#d8b23f"/><stop offset="78%" stop-color="#a87f24"/><stop offset="100%" stop-color="#6e4f12"/></linearGradient><radialGradient id="hcpp1" cx="38%" cy="30%" r="80%"><stop offset="0%" stop-color="#ff7a7e"/><stop offset="45%" stop-color="#e51f2b"/><stop offset="100%" stop-color="#8c0d15"/></radialGradient></defs><path d="M500,40 L890,232 L890,616 C890,800 712,902 500,958 C288,902 110,800 110,616 L110,232 Z" fill="url(#cbpp1)" stroke="url(#gpp1)" stroke-width="24" stroke-linejoin="round"/><path d="M500,40 L890,232 L890,616 C890,800 712,902 500,958 C288,902 110,800 110,616 L110,232 Z" fill="none" stroke="#fff7d6" stroke-width="3" stroke-opacity=".55" stroke-linejoin="round"/><path d="M500,94 L846,260 L846,606 C846,772 690,862 500,910 C310,862 154,772 154,606 L154,260 Z" fill="none" stroke="url(#gpp1)" stroke-width="5" opacity=".75"/><polygon points="500.0,130.0 507.4,147.8 526.6,149.3 512.0,161.9 516.5,180.7 500.0,170.6 483.5,180.7 488.0,161.9 473.4,149.3 492.6,147.8" fill="url(#gpp1)" stroke="#6e4f12" stroke-width="1.5"/><text x="500" y="338" font-family="'DejaVu Serif','Liberation Serif',Georgia,serif" font-weight="bold" font-size="150" letter-spacing="14" text-anchor="middle" fill="url(#gpp1)" stroke="#3a2908" stroke-width="2">Y·R·K</text><g transform="translate(500,582) rotate(-28) scale(1.02) translate(-183,-88)"><g fill="url(#gpp1)" stroke="#3a2908" stroke-width="2" stroke-linejoin="round">
   <polygon points="0,44 62,30 62,74 34,82 0,72"/><rect x="60" y="30" width="130" height="38" rx="3"/>
   <rect x="92" y="19" width="100" height="10" rx="3"/><polygon points="118,68 140,68 153,116 126,118"/>
   <path d="M150,68 L190,68 L202,156 Q184,162 166,156 Z"/><rect x="190" y="38" width="76" height="26" rx="5"/>
   <rect x="266" y="46" width="96" height="10" rx="3"/><polygon points="300,21 310,21 308,46 302,46"/><rect x="352" y="43" width="15" height="15" rx="2"/></g></g><g transform="translate(500,582) rotate(28) scale(1.02) translate(-183,-77)"><g fill="url(#gpp1)" stroke-linejoin="round"><path d="M0,56 L58,40 L114,48 L114,98 L74,100 L44,114 L10,100 Z"/><rect x="108" y="40" width="48" height="48" rx="5"/><rect x="150" y="40" width="210" height="11" rx="3"/><rect x="150" y="56" width="210" height="11" rx="3"/><rect x="150" y="72" width="74" height="17" rx="7"/><rect x="354" y="38" width="11" height="31" rx="2"/></g></g><g><ellipse cx="387.6" cy="878.2" rx="8" ry="19" transform="rotate(202.0 387.6 878.2)" fill="url(#gpp1)" stroke="#6e4f12" stroke-width="1"/><ellipse cx="612.4" cy="878.2" rx="8" ry="19" transform="rotate(-22.0 612.4 878.2)" fill="url(#gpp1)" stroke="#6e4f12" stroke-width="1"/><ellipse cx="327.9" cy="845.7" rx="8" ry="19" transform="rotate(215.0 327.9 845.7)" fill="url(#gpp1)" stroke="#6e4f12" stroke-width="1"/><ellipse cx="672.1" cy="845.7" rx="8" ry="19" transform="rotate(-35.0 672.1 845.7)" fill="url(#gpp1)" stroke="#6e4f12" stroke-width="1"/><ellipse cx="277.1" cy="800.7" rx="8" ry="19" transform="rotate(228.0 277.1 800.7)" fill="url(#gpp1)" stroke="#6e4f12" stroke-width="1"/><ellipse cx="722.9" cy="800.7" rx="8" ry="19" transform="rotate(-48.0 722.9 800.7)" fill="url(#gpp1)" stroke="#6e4f12" stroke-width="1"/><ellipse cx="237.6" cy="745.4" rx="8" ry="19" transform="rotate(241.0 237.6 745.4)" fill="url(#gpp1)" stroke="#6e4f12" stroke-width="1"/><ellipse cx="762.4" cy="745.4" rx="8" ry="19" transform="rotate(-61.0 762.4 745.4)" fill="url(#gpp1)" stroke="#6e4f12" stroke-width="1"/><ellipse cx="211.6" cy="682.7" rx="8" ry="19" transform="rotate(254.0 211.6 682.7)" fill="url(#gpp1)" stroke="#6e4f12" stroke-width="1"/><ellipse cx="788.4" cy="682.7" rx="8" ry="19" transform="rotate(-74.0 788.4 682.7)" fill="url(#gpp1)" stroke="#6e4f12" stroke-width="1"/><ellipse cx="200.4" cy="615.7" rx="8" ry="19" transform="rotate(267.0 200.4 615.7)" fill="url(#gpp1)" stroke="#6e4f12" stroke-width="1"/><ellipse cx="799.6" cy="615.7" rx="8" ry="19" transform="rotate(-87.0 799.6 615.7)" fill="url(#gpp1)" stroke="#6e4f12" stroke-width="1"/><ellipse cx="204.6" cy="547.9" rx="8" ry="19" transform="rotate(280.0 204.6 547.9)" fill="url(#gpp1)" stroke="#6e4f12" stroke-width="1"/><ellipse cx="795.4" cy="547.9" rx="8" ry="19" transform="rotate(-100.0 795.4 547.9)" fill="url(#gpp1)" stroke="#6e4f12" stroke-width="1"/><ellipse cx="223.8" cy="482.8" rx="8" ry="19" transform="rotate(293.0 223.8 482.8)" fill="url(#gpp1)" stroke="#6e4f12" stroke-width="1"/><ellipse cx="776.2" cy="482.8" rx="8" ry="19" transform="rotate(-113.0 776.2 482.8)" fill="url(#gpp1)" stroke="#6e4f12" stroke-width="1"/></g><g transform="translate(500,582) scale(1.62)"><path d="M0,56 C-31,26 -54,6 -54,-16 C-54,-37 -31,-47 -12,-31 C-6,-26 0,-17 0,-11 C0,-17 6,-26 12,-31 C31,-47 54,-37 54,-16 C54,6 31,26 0,56 Z" fill="url(#hcpp1)" stroke="#8c0d15" stroke-width="2.5"/><path d="M-30,-22 C-40,-6 -34,12 -16,22 C-30,4 -26,-12 -12,-22 C-22,-26 -27,-25 -30,-22 Z" fill="#fff" opacity=".35"/></g><linearGradient id="ribcrpp1" x1="0" y1="0" x2="0" y2="1"><stop offset="0%" stop-color="#fff3c4"/><stop offset="100%" stop-color="#d4af37"/></linearGradient><path d="M298,802 L266,816 L266,898 L298,880 Z" fill="#8c0d15"/><path d="M702,802 L734,816 L734,898 L702,880 Z" fill="#8c0d15"/><rect x="298" y="794" width="404" height="92" fill="url(#ribcrpp1)" stroke="#8c0d15" stroke-width="3"/><text x="500" y="858" font-family="'Liberation Sans','DejaVu Sans',Arial,sans-serif" font-weight="bold" font-size="50" letter-spacing="2" text-anchor="middle" fill="#15140f">LA DÉTENTE</text><path d="M180,255 L500,118 L820,255" fill="none" stroke="#fff" stroke-opacity=".10" stroke-width="16" stroke-linecap="round"/></svg>