<svg xmlns="http://www.w3.org/2000/svg" width="2000" height="1125" viewBox="0 0 1600 900"><defs><linearGradient id="bg2" x1="0" y1="0" x2="0" y2="1"><stop offset="0%" stop-color="#16171c"/><stop offset="100%" stop-color="#070809"/></linearGradient><linearGradient id="wm2" x1="0" y1="0" x2="0" y2="1"><stop offset="0%" stop-color="#fff"/><stop offset="100%" stop-color="#c7ccd4"/></linearGradient><radialGradient id="lh2" cx="38%" cy="30%" r="80%"><stop offset="0%" stop-color="#ff6a6f"/><stop offset="45%" stop-color="#e51f2b"/><stop offset="100%" stop-color="#8c0d15"/></radialGradient></defs><rect width="1600" height="900" fill="url(#bg2)"/><rect x="40" y="40" width="1520" height="820" rx="26" fill="none" stroke="#fff" stroke-opacity=".08" stroke-width="3"/><text x="800" y="200" font-family="'Liberation Sans','DejaVu Sans',Arial,sans-serif" font-weight="bold" font-size="56" letter-spacing="10" text-anchor="middle" fill="#e51f2b">YANN · RÉMY · KEVIN</text><g transform="translate(800,250) scale(1.5)"><path d="M0,56 C-31,26 -54,6 -54,-16 C-54,-37 -31,-47 -12,-31 C-6,-26 0,-17 0,-11 C0,-17 6,-26 12,-31 C31,-47 54,-37 54,-16 C54,6 31,26 0,56 Z" fill="url(#lh2)" stroke="#8c0d15" stroke-width="2.5"/></g><text x="800" y="600" font-family="'Liberation Sans','DejaVu Sans',Arial,sans-serif" font-weight="bold" font-size="300" letter-spacing="20" text-anchor="middle" fill="url(#wm2)">Y·R·K</text><g transform="translate(800,560) scale(1.0) translate(-183,-82)" opacity=".14"><g fill="#c7ccd4" stroke="none" stroke-width="0" stroke-linejoin="round">
   <polygon points="0,44 62,30 62,74 34,82 0,72"/><rect x="60" y="30" width="130" height="38" rx="3"/>
   <rect x="92" y="19" width="100" height="10" rx="3"/><polygon points="118,68 140,68 153,116 126,118"/>
   <path d="M150,68 L190,68 L202,156 Q184,162 166,156 Z"/><rect x="190" y="38" width="76" height="26" rx="5"/>
   <rect x="266" y="46" width="96" height="10" rx="3"/><polygon points="300,21 310,21 308,46 302,46"/><rect x="352" y="43" width="15" height="15" rx="2"/></g></g><text x="800" y="720" font-family="'Liberation Sans','DejaVu Sans',Arial,sans-serif" font-weight="bold" font-size="62" letter-spacing="14" text-anchor="middle" fill="#e7e9ee">LA DÉTENTE</text><text x="800" y="775" font-family="'Liberation Sans','DejaVu Sans',Arial,sans-serif" font-weight="bold" font-size="32" letter-spacing="9" text-anchor="middle" fill="#7d848f">TIR · BALL-TRAP · CHASSE</text></svg>