<svg xmlns="http://www.w3.org/2000/svg" width="1600" height="1600" viewBox="0 0 1000 1000"><defs><radialGradient id="bgb" cx="50%" cy="42%" r="62%"><stop offset="0%" stop-color="#283019"/><stop offset="100%" stop-color="#141a0d"/></radialGradient>
 <linearGradient id="dkb" x1="0" y1="0" x2="0" y2="1"><stop offset="0%" stop-color="#b6a890"/><stop offset="55%" stop-color="#8f8069"/><stop offset="100%" stop-color="#6f6150"/></linearGradient>
 <linearGradient id="dmb" x1="0" y1="0" x2="0" y2="1"><stop offset="0%" stop-color="#efe7d6"/><stop offset="100%" stop-color="#d6cab2"/></linearGradient><radialGradient id="hb" cx="38%" cy="30%" r="80%"><stop offset="0%" stop-color="#ff6a63"/><stop offset="45%" stop-color="#d72a25"/><stop offset="100%" stop-color="#7c1311"/></radialGradient></defs><circle cx="500" cy="500" r="486" fill="#6f7c3f"/><circle cx="500" cy="500" r="486" fill="none" stroke="#3d4824" stroke-width="6"/><circle cx="500" cy="500" r="452" fill="url(#bgb)"/><circle cx="500" cy="500" r="452" fill="none" stroke="#efe9d2" stroke-width="4" stroke-dasharray="2 11" stroke-linecap="round" opacity=".85"/><g transform="translate(500,500) scale(1.05)"><g><g><ellipse cx="-96" cy="-150" rx="44" ry="118" transform="rotate(-14 -96 -150)" fill="url(#dkb)" stroke="#3a3128" stroke-width="3"/><ellipse cx="-96" cy="-150" rx="22" ry="88" transform="rotate(-14 -96 -150)" fill="#caa79b"/></g><g><ellipse cx="96" cy="-150" rx="44" ry="118" transform="rotate(14 96 -150)" fill="url(#dkb)" stroke="#3a3128" stroke-width="3"/><ellipse cx="96" cy="-150" rx="22" ry="88" transform="rotate(14 96 -150)" fill="#caa79b"/></g><path d="M-120,-50 C-138,55 -108,160 0,214 C108,160 138,55 120,-50 C108,-118 58,-150 0,-148 C-58,-150 -108,-118 -120,-50 Z" fill="url(#dkb)" stroke="#3a3128" stroke-width="4"/><g fill="#3a3128"><path d="M0,-176 l16,40 l-10,4 l14,40 l-34,-30 l8,-6 l-12,-34 Z"/><path d="M-26,-150 l10,36 l-20,-14 Z" opacity=".8"/><path d="M26,-150 l-10,36 l20,-14 Z" opacity=".8"/></g><ellipse cx="0" cy="122" rx="120" ry="96" fill="url(#dmb)" stroke="#3a3128" stroke-width="3"/><ellipse cx="-58" cy="-18" rx="30" ry="34" fill="#fff" stroke="#3a3128" stroke-width="3"/><circle cx="-54" cy="-12" r="15" fill="#241d15"/><circle cx="-49" cy="-18" r="5" fill="#fff"/><ellipse cx="58" cy="-18" rx="30" ry="34" fill="#fff" stroke="#3a3128" stroke-width="3"/><circle cx="62" cy="-12" r="15" fill="#241d15"/><circle cx="67" cy="-18" r="5" fill="#fff"/><path d="M-92,-58 q34,-26 70,-8" fill="none" stroke="#3a3128" stroke-width="6" stroke-linecap="round"/><path d="M92,-58 q-34,-26 -70,-8" fill="none" stroke="#3a3128" stroke-width="6" stroke-linecap="round"/><ellipse cx="-32" cy="118" rx="15" ry="20" fill="#4a4038"/><ellipse cx="32" cy="118" rx="15" ry="20" fill="#4a4038"/><path d="M-78,158 Q0,210 78,158 Q0,250 -78,158 Z" fill="#7a3b3f" stroke="#3a3128" stroke-width="3"/><g fill="#fff" stroke="#cfc8b8" stroke-width="1.5"><rect x="-69" y="170" width="18" height="22" rx="3"/><rect x="-49" y="170" width="18" height="22" rx="3"/><rect x="-29" y="170" width="18" height="22" rx="3"/><rect x="-9" y="170" width="18" height="22" rx="3"/><rect x="11" y="170" width="18" height="22" rx="3"/><rect x="31" y="170" width="18" height="22" rx="3"/><rect x="51" y="170" width="18" height="22" rx="3"/></g></g></g><g transform="translate(720,330) scale(1)"><path d="M0,56 C-31,26 -54,6 -54,-16 C-54,-37 -31,-47 -12,-31 C-6,-26 0,-17 0,-11 C0,-17 6,-26 12,-31 C31,-47 54,-37 54,-16 C54,6 31,26 0,56 Z" fill="url(#hb)" stroke="#7c1311" stroke-width="2.5"/></g><g font-family="'Liberation Sans','DejaVu Sans',Arial,sans-serif" font-weight="bold" font-size="46" fill="#efe9d2" text-anchor="middle"><text x="109.8" y="411.1" transform="rotate(-75.00 109.8 395.4)">T</text><text x="124.2" y="367.4" transform="rotate(-68.48 124.2 351.8)">I</text><text x="143.4" y="325.7" transform="rotate(-61.96 143.4 310.1)">R</text><text x="195.5" y="250.1" transform="rotate(-48.91 195.5 234.5)">·</text><text x="263.3" y="188.3" transform="rotate(-35.87 263.3 172.6)">B</text><text x="302.0" y="163.5" transform="rotate(-29.35 302.0 147.8)">A</text><text x="343.3" y="143.3" transform="rotate(-22.83 343.3 127.6)">L</text><text x="386.6" y="127.9" transform="rotate(-16.30 386.6 112.2)">L</text><text x="431.4" y="117.5" transform="rotate(-9.78 431.4 101.9)">-</text><text x="477.0" y="112.3" transform="rotate(-3.26 477.0 96.7)">T</text><text x="523.0" y="112.3" transform="rotate(3.26 523.0 96.7)">R</text><text x="568.6" y="117.5" transform="rotate(9.78 568.6 101.9)">A</text><text x="613.4" y="127.9" transform="rotate(16.30 613.4 112.2)">P</text><text x="698.0" y="163.5" transform="rotate(29.35 698.0 147.8)">·</text><text x="772.4" y="217.3" transform="rotate(42.39 772.4 201.6)">C</text><text x="804.5" y="250.1" transform="rotate(48.91 804.5 234.5)">H</text><text x="832.7" y="286.4" transform="rotate(55.43 832.7 270.8)">A</text><text x="856.6" y="325.7" transform="rotate(61.96 856.6 310.1)">S</text><text x="875.8" y="367.4" transform="rotate(68.48 875.8 351.8)">S</text><text x="890.2" y="411.1" transform="rotate(75.00 890.2 395.4)">E</text></g><path d="M314,762 L282,776 L282,858 L314,840 Z" fill="#7c1311"/><path d="M686,762 L718,776 L718,858 L686,840 Z" fill="#7c1311"/><rect x="314" y="754" width="372" height="92" fill="#d72a25" stroke="#7c1311" stroke-width="3"/><text x="500" y="818" font-family="'Liberation Sans','DejaVu Sans',Arial,sans-serif" font-weight="bold" font-size="50" letter-spacing="2" text-anchor="middle" fill="#fff">LA DÉTENTE</text></svg>