<svg xmlns="http://www.w3.org/2000/svg" width="1600" height="1600" viewBox="0 0 1000 1000"><defs>
 <linearGradient id="dkd" x1="0" y1="0" x2="0" y2="1"><stop offset="0%" stop-color="#b6a890"/><stop offset="55%" stop-color="#8f8069"/><stop offset="100%" stop-color="#6f6150"/></linearGradient>
 <linearGradient id="dmd" x1="0" y1="0" x2="0" y2="1"><stop offset="0%" stop-color="#efe7d6"/><stop offset="100%" stop-color="#d6cab2"/></linearGradient><linearGradient id="cbd" x1="0" y1="0" x2="0" y2="1"><stop offset="0%" stop-color="#1a1c22"/><stop offset="100%" stop-color="#0a0b0e"/></linearGradient><radialGradient id="hcd" cx="38%" cy="30%" r="80%"><stop offset="0%" stop-color="#ff6a6f"/><stop offset="45%" stop-color="#e51f2b"/><stop offset="100%" stop-color="#8c0d15"/></radialGradient></defs><path d="M500,52 L884,235 L884,612 C884,792 712,890 500,944 C288,890 116,792 116,612 L116,235 Z" fill="url(#cbd)" stroke="#e51f2b" stroke-width="16" stroke-linejoin="round"/><g transform="translate(500,470) rotate(-26) scale(.82) translate(-183,-88)" opacity=".9"><g fill="#c7ccd4"><polygon points="0,44 62,30 62,74 34,82 0,72"/><rect x="60" y="30" width="130" height="38" rx="3"/><rect x="92" y="19" width="100" height="10" rx="3"/><polygon points="118,68 140,68 153,116 126,118"/><path d="M150,68 L190,68 L202,156 Q184,162 166,156 Z"/><rect x="190" y="38" width="76" height="26" rx="5"/><rect x="266" y="46" width="96" height="10" rx="3"/><polygon points="300,21 310,21 308,46 302,46"/><rect x="352" y="43" width="15" height="15" rx="2"/></g></g><g transform="translate(500,470) rotate(26) scale(.82) translate(-183,-77)" opacity=".9"><g fill="#c7ccd4"><path d="M0,56 L58,40 L114,48 L114,98 L74,100 L44,114 L10,100 Z"/><rect x="108" y="40" width="48" height="48" rx="5"/><rect x="150" y="40" width="210" height="11" rx="3"/><rect x="150" y="56" width="210" height="11" rx="3"/><rect x="150" y="72" width="74" height="17" rx="7"/><rect x="354" y="38" width="11" height="31" rx="2"/></g></g><g transform="translate(500,470) scale(.92)"><g><g><ellipse cx="-96" cy="-150" rx="44" ry="118" transform="rotate(-14 -96 -150)" fill="url(#dkd)" stroke="#3a3128" stroke-width="3"/><ellipse cx="-96" cy="-150" rx="22" ry="88" transform="rotate(-14 -96 -150)" fill="#caa79b"/></g><g><ellipse cx="96" cy="-150" rx="44" ry="118" transform="rotate(14 96 -150)" fill="url(#dkd)" stroke="#3a3128" stroke-width="3"/><ellipse cx="96" cy="-150" rx="22" ry="88" transform="rotate(14 96 -150)" fill="#caa79b"/></g><path d="M-120,-50 C-138,55 -108,160 0,214 C108,160 138,55 120,-50 C108,-118 58,-150 0,-148 C-58,-150 -108,-118 -120,-50 Z" fill="url(#dkd)" stroke="#3a3128" stroke-width="4"/><g fill="#3a3128"><path d="M0,-176 l16,40 l-10,4 l14,40 l-34,-30 l8,-6 l-12,-34 Z"/><path d="M-26,-150 l10,36 l-20,-14 Z" opacity=".8"/><path d="M26,-150 l-10,36 l20,-14 Z" opacity=".8"/></g><ellipse cx="0" cy="122" rx="120" ry="96" fill="url(#dmd)" stroke="#3a3128" stroke-width="3"/><ellipse cx="-58" cy="-18" rx="30" ry="34" fill="#fff" stroke="#3a3128" stroke-width="3"/><circle cx="-54" cy="-12" r="15" fill="#241d15"/><circle cx="-49" cy="-18" r="5" fill="#fff"/><ellipse cx="58" cy="-18" rx="30" ry="34" fill="#fff" stroke="#3a3128" stroke-width="3"/><circle cx="62" cy="-12" r="15" fill="#241d15"/><circle cx="67" cy="-18" r="5" fill="#fff"/><path d="M-92,-58 q34,-26 70,-8" fill="none" stroke="#3a3128" stroke-width="6" stroke-linecap="round"/><path d="M92,-58 q-34,-26 -70,-8" fill="none" stroke="#3a3128" stroke-width="6" stroke-linecap="round"/><ellipse cx="-32" cy="118" rx="15" ry="20" fill="#4a4038"/><ellipse cx="32" cy="118" rx="15" ry="20" fill="#4a4038"/><path d="M-78,158 Q0,210 78,158 Q0,250 -78,158 Z" fill="#7a3b3f" stroke="#3a3128" stroke-width="3"/><g fill="#fff" stroke="#cfc8b8" stroke-width="1.5"><rect x="-69" y="170" width="18" height="22" rx="3"/><rect x="-49" y="170" width="18" height="22" rx="3"/><rect x="-29" y="170" width="18" height="22" rx="3"/><rect x="-9" y="170" width="18" height="22" rx="3"/><rect x="11" y="170" width="18" height="22" rx="3"/><rect x="31" y="170" width="18" height="22" rx="3"/><rect x="51" y="170" width="18" height="22" rx="3"/></g></g></g><g transform="translate(500,752) scale(1)"><path d="M0,56 C-31,26 -54,6 -54,-16 C-54,-37 -31,-47 -12,-31 C-6,-26 0,-17 0,-11 C0,-17 6,-26 12,-31 C31,-47 54,-37 54,-16 C54,6 31,26 0,56 Z" fill="url(#hcd)" stroke="#8c0d15" stroke-width="2.5"/></g><path d="M304,800 L272,814 L272,896 L304,878 Z" fill="#8c0d15"/><path d="M696,800 L728,814 L728,896 L696,878 Z" fill="#8c0d15"/><rect x="304" y="792" width="392" height="92" fill="#e51f2b" stroke="#8c0d15" stroke-width="3"/><text x="500" y="856" font-family="'Liberation Sans','DejaVu Sans',Arial,sans-serif" font-weight="bold" font-size="50" letter-spacing="2" text-anchor="middle" fill="#fff">LA DÉTENTE</text></svg>