<svg xmlns="http://www.w3.org/2000/svg" width="1600" height="1600" viewBox="0 0 1000 1000"><defs>
 <linearGradient id="dkf" x1="0" y1="0" x2="0" y2="1"><stop offset="0%" stop-color="#b6a890"/><stop offset="55%" stop-color="#8f8069"/><stop offset="100%" stop-color="#6f6150"/></linearGradient>
 <linearGradient id="dmf" x1="0" y1="0" x2="0" y2="1"><stop offset="0%" stop-color="#efe7d6"/><stop offset="100%" stop-color="#d6cab2"/></linearGradient><radialGradient id="clayf" cx="40%" cy="35%" r="75%"><stop offset="0%" stop-color="#ffb24d"/><stop offset="100%" stop-color="#c25a00"/></radialGradient><radialGradient id="hbf" cx="38%" cy="30%" r="80%"><stop offset="0%" stop-color="#ff6a6f"/><stop offset="45%" stop-color="#e51f2b"/><stop offset="100%" stop-color="#8c0d15"/></radialGradient></defs><rect width="1000" height="1000" rx="60" fill="#f4f1ea"/><g transform="translate(470,520) scale(1.15)"><g><g><ellipse cx="-96" cy="-150" rx="44" ry="118" transform="rotate(-14 -96 -150)" fill="url(#dkf)" stroke="#3a3128" stroke-width="3"/><ellipse cx="-96" cy="-150" rx="22" ry="88" transform="rotate(-14 -96 -150)" fill="#caa79b"/></g><g><ellipse cx="96" cy="-150" rx="44" ry="118" transform="rotate(14 96 -150)" fill="url(#dkf)" stroke="#3a3128" stroke-width="3"/><ellipse cx="96" cy="-150" rx="22" ry="88" transform="rotate(14 96 -150)" fill="#caa79b"/></g><path d="M-120,-50 C-138,55 -108,160 0,214 C108,160 138,55 120,-50 C108,-118 58,-150 0,-148 C-58,-150 -108,-118 -120,-50 Z" fill="url(#dkf)" stroke="#3a3128" stroke-width="4"/><g fill="#3a3128"><path d="M0,-176 l16,40 l-10,4 l14,40 l-34,-30 l8,-6 l-12,-34 Z"/><path d="M-26,-150 l10,36 l-20,-14 Z" opacity=".8"/><path d="M26,-150 l-10,36 l20,-14 Z" opacity=".8"/></g><ellipse cx="0" cy="122" rx="120" ry="96" fill="url(#dmf)" stroke="#3a3128" stroke-width="3"/><ellipse cx="-58" cy="-18" rx="30" ry="34" fill="#fff" stroke="#3a3128" stroke-width="3"/><circle cx="-54" cy="-12" r="15" fill="#241d15"/><circle cx="-49" cy="-18" r="5" fill="#fff"/><ellipse cx="58" cy="-18" rx="30" ry="34" fill="#fff" stroke="#3a3128" stroke-width="3"/><circle cx="62" cy="-12" r="15" fill="#241d15"/><circle cx="67" cy="-18" r="5" fill="#fff"/><path d="M-92,-58 q34,-26 70,-8" fill="none" stroke="#3a3128" stroke-width="6" stroke-linecap="round"/><path d="M92,-58 q-34,-26 -70,-8" fill="none" stroke="#3a3128" stroke-width="6" stroke-linecap="round"/><ellipse cx="-32" cy="118" rx="15" ry="20" fill="#4a4038"/><ellipse cx="32" cy="118" rx="15" ry="20" fill="#4a4038"/><path d="M-78,158 Q0,210 78,158 Q0,250 -78,158 Z" fill="#7a3b3f" stroke="#3a3128" stroke-width="3"/><g fill="#fff" stroke="#cfc8b8" stroke-width="1.5"><rect x="-69" y="170" width="18" height="22" rx="3"/><rect x="-49" y="170" width="18" height="22" rx="3"/><rect x="-29" y="170" width="18" height="22" rx="3"/><rect x="-9" y="170" width="18" height="22" rx="3"/><rect x="11" y="170" width="18" height="22" rx="3"/><rect x="31" y="170" width="18" height="22" rx="3"/><rect x="51" y="170" width="18" height="22" rx="3"/></g></g></g><g transform="translate(800,300)"><ellipse cx="0" cy="0" rx="60" ry="22" fill="url(#clayf)" stroke="#7a3a00" stroke-width="3"/><ellipse cx="0" cy="-5" rx="40" ry="12" fill="#ffd9a0" opacity=".55"/><g stroke="#c25a00" stroke-width="7" stroke-linecap="round" opacity=".75"><line x1="70" y1="-16" x2="120" y2="-28"/><line x1="70" y1="2" x2="126" y2="2"/><line x1="70" y1="18" x2="118" y2="32"/></g></g><g transform="translate(250,250) scale(1.1)"><path d="M0,56 C-31,26 -54,6 -54,-16 C-54,-37 -31,-47 -12,-31 C-6,-26 0,-17 0,-11 C0,-17 6,-26 12,-31 C31,-47 54,-37 54,-16 C54,6 31,26 0,56 Z" fill="url(#hbf)" stroke="#8c0d15" stroke-width="2.5"/></g><text x="500" y="930" font-family="'Liberation Sans','DejaVu Sans',Arial,sans-serif" font-weight="bold" font-size="78" letter-spacing="3" text-anchor="middle" fill="#15171a">LA DÉTENTE</text><text x="500" y="80" font-family="'Liberation Sans','DejaVu Sans',Arial,sans-serif" font-weight="bold" font-size="34" letter-spacing="8" text-anchor="middle" fill="#8c0d15">TIR · BALL-TRAP · CHASSE</text></svg>