<svg xmlns="http://www.w3.org/2000/svg" xmlns:xlink="http://www.w3.org/1999/xlink" width="1600" height="1920" viewBox="0 0 1600 1920">
    <defs><linearGradient id="bg_st1" x1="0" y1="0" x2="0" y2="1"><stop offset="0%" stop-color="#1a1c22"/><stop offset="100%" stop-color="#0a0b0e"/></linearGradient><radialGradient id="hht_st1" cx="38%" cy="30%" r="80%">
      <stop offset="0%" stop-color="#ff6a6f"/>
      <stop offset="45%" stop-color="#e51f2b"/>
      <stop offset="100%" stop-color="#8c0d15"/>
    </radialGradient><linearGradient id="bg_st2" x1="0" y1="0" x2="0" y2="1"><stop offset="0%" stop-color="#1a1c22"/><stop offset="100%" stop-color="#0a0b0e"/></linearGradient><radialGradient id="hht_st2" cx="38%" cy="30%" r="80%">
      <stop offset="0%" stop-color="#ff6a6f"/>
      <stop offset="45%" stop-color="#e51f2b"/>
      <stop offset="100%" stop-color="#8c0d15"/>
    </radialGradient><radialGradient id="bg_st3" cx="50%" cy="42%" r="62%"><stop offset="0%" stop-color="#283019"/><stop offset="100%" stop-color="#141a0d"/></radialGradient><pattern id="camo_st3" width="180" height="180" patternUnits="userSpaceOnUse" patternTransform="rotate(8)">
    <rect width="180" height="180" fill="#283019"/>
    <path d="M10,30 q40,-30 80,-5 q40,25 10,55 q-35,30 -75,5 q-30,-25 -15,-60 Z" fill="#3a4520"/>
    <path d="M95,90 q35,-22 70,5 q22,30 -10,55 q-40,25 -70,-5 q-20,-30 10,-55 Z" fill="#525d2c"/>
    <path d="M120,10 q30,15 12,42 q-25,22 -52,2 q-15,-30 40,-44 Z" fill="#2a3315"/>
    <path d="M20,120 q28,-12 44,14 q12,28 -20,40 q-34,8 -40,-24 q-2,-20 16,-30 Z" fill="#6b7536"/>
    <ellipse cx="150" cy="150" rx="26" ry="18" fill="#222a12"/>
    <ellipse cx="60" cy="80" rx="14" ry="10" fill="#79844a"/>
  </pattern><radialGradient id="clay_st3" cx="40%" cy="35%" r="75%"><stop offset="0%" stop-color="#ffb24d"/><stop offset="100%" stop-color="#c25a00"/></radialGradient><radialGradient id="hht_st3" cx="38%" cy="30%" r="80%">
      <stop offset="0%" stop-color="#ff6a63"/>
      <stop offset="45%" stop-color="#d72a25"/>
      <stop offset="100%" stop-color="#7c1311"/>
    </radialGradient><radialGradient id="bg_st4" cx="50%" cy="38%" r="70%"><stop offset="0%" stop-color="#16141b"/><stop offset="100%" stop-color="#08070b"/></radialGradient><linearGradient id="ring_st4" x1="0" y1="0" x2="0" y2="1"><stop offset="0%" stop-color="#fff3c4"/><stop offset="45%" stop-color="#d4af37"/><stop offset="100%" stop-color="#9c7b22"/></linearGradient><linearGradient id="mg_st4" x1="0" y1="0" x2="0" y2="1">
      <stop offset="0%" stop-color="#fff3c4"/><stop offset="50%" stop-color="#d4af37"/><stop offset="100%" stop-color="#9c7b22"/>
    </linearGradient><radialGradient id="hht_st4" cx="38%" cy="30%" r="80%">
      <stop offset="0%" stop-color="#ff7a7e"/>
      <stop offset="45%" stop-color="#e51f2b"/>
      <stop offset="100%" stop-color="#8c0d15"/>
    </radialGradient></defs>
    <rect width="1600" height="1920" fill="#e9ebee"/>
    <rect x="40" y="40" width="1520" height="1840" rx="24" fill="#ffffff" stroke="#cdd2d8" stroke-width="2"/>
    <text x="800" y="150" font-family="'Liberation Sans','DejaVu Sans',Arial,sans-serif" font-weight="bold" font-size="58" letter-spacing="8" text-anchor="middle" fill="#1a1c22">LA DÉTENTE — PLANCHE STICKERS</text>
    <circle cx="430" cy="640" r="392" fill="#ffffff"/>
    <g>
      <circle cx="430" cy="640" r="0.40019200000000005" fill="#ffffff"/>
      <circle cx="430" cy="640" r="199.8" fill="none" stroke="#b9bec6" stroke-width="3" stroke-dasharray="10 9"/>
      <g transform="translate(430,640) scale(0.74) translate(-500,-500)"><path d="M500,40 L880,235 L880,640 C880,820 700,920 500,968 C300,920 120,820 120,640 L120,235 Z" fill="url(#bg_st1)" stroke="#e51f2b" stroke-width="14" stroke-linejoin="round"/><path d="M500,40 L880,235 L880,640 C880,820 700,920 500,968 C300,920 120,820 120,640 L120,235 Z" fill="none" stroke="#efe7d2" stroke-width="3" stroke-linejoin="round" opacity="0.35" transform="translate(0,0) scale(1)"/><path d="M500,92 L832,262 L832,628 C832,786 676,876 500,920 C324,876 168,786 168,628 L168,262 Z" fill="none" stroke="#e51f2b" stroke-width="4" opacity="0.5"/><g transform="translate(500,520) scale(1.42) translate(-183,-88)"><g fill="#d7dce3" stroke="none" stroke-width="0" stroke-linejoin="round">
    <polygon points="0,44 62,30 62,74 34,82 0,72"/>
    <rect x="60" y="30" width="130" height="38" rx="3"/>
    <rect x="92" y="19" width="100" height="10" rx="3"/>
    <polygon points="118,68 140,68 153,116 126,118"/>
    <path d="M150,68 L190,68 L202,156 Q184,162 166,156 Z"/>
    <rect x="190" y="38" width="76" height="26" rx="5"/>
    <rect x="266" y="46" width="96" height="10" rx="3"/>
    <polygon points="300,21 310,21 308,46 302,46"/>
    <rect x="352" y="43" width="15" height="15" rx="2"/>
  </g></g><g transform="translate(500,360) scale(1.55)">
      <path d="M0,56 C-31,26 -54,6 -54,-16 C-54,-37 -31,-47 -12,-31 C-6,-26 0,-17 0,-11 C0,-17 6,-26 12,-31 C31,-47 54,-37 54,-16 C54,6 31,26 0,56 Z" fill="url(#hht_st1)" stroke="#8c0d15" stroke-width="2.5"/>
      
    </g><rect x="250" y="742" width="500" height="86" rx="14" fill="#e51f2b"/><text x="500" y="802" font-family="'Liberation Sans','DejaVu Sans',Arial,sans-serif" font-weight="bold" font-size="64" letter-spacing="4" text-anchor="middle" fill="#ffffff">LA DÉTENTE</text><text x="500" y="690" font-family="'Liberation Sans','DejaVu Sans',Arial,sans-serif" font-weight="bold" font-size="34" letter-spacing="7" text-anchor="middle" fill="#c9ccd3">TIR · BALL-TRAP · CHASSE</text></g>
    </g>
    <g>
      <circle cx="1170" cy="640" r="0.40019200000000005" fill="#ffffff"/>
      <circle cx="1170" cy="640" r="199.8" fill="none" stroke="#b9bec6" stroke-width="3" stroke-dasharray="10 9"/>
      <g transform="translate(1170,640) scale(0.74) translate(-500,-500)"><path d="M500,40 L880,235 L880,640 C880,820 700,920 500,968 C300,920 120,820 120,640 L120,235 Z" fill="url(#bg_st2)" stroke="#e51f2b" stroke-width="14" stroke-linejoin="round"/><path d="M500,40 L880,235 L880,640 C880,820 700,920 500,968 C300,920 120,820 120,640 L120,235 Z" fill="none" stroke="#efe7d2" stroke-width="3" stroke-linejoin="round" opacity="0.35" transform="translate(0,0) scale(1)"/><path d="M500,92 L832,262 L832,628 C832,786 676,876 500,920 C324,876 168,786 168,628 L168,262 Z" fill="none" stroke="#e51f2b" stroke-width="4" opacity="0.5"/><g transform="translate(500,545) scale(1.7) translate(-120,-86)"><g fill="#d7dce3" stroke="none" stroke-width="0" stroke-linejoin="round">
    <path d="M40,8 L196,8 L210,18 L210,42 L40,42 Z"/>
    <rect x="40" y="42" width="124" height="17" rx="2"/>
    <polygon points="40,42 98,42 84,156 34,164 20,122 40,88"/>
    <path d="M150,59 q30,2 30,30 l-12,0 q-2,-18 -22,-18 Z"/>
    <rect x="206" y="18" width="14" height="15" rx="2"/>
  </g></g><g transform="translate(500,330) scale(1.5)">
      <path d="M0,56 C-31,26 -54,6 -54,-16 C-54,-37 -31,-47 -12,-31 C-6,-26 0,-17 0,-11 C0,-17 6,-26 12,-31 C31,-47 54,-37 54,-16 C54,6 31,26 0,56 Z" fill="url(#hht_st2)" stroke="#8c0d15" stroke-width="2.5"/>
      
    </g><rect x="250" y="742" width="500" height="86" rx="14" fill="#e51f2b"/><text x="500" y="802" font-family="'Liberation Sans','DejaVu Sans',Arial,sans-serif" font-weight="bold" font-size="64" letter-spacing="4" text-anchor="middle" fill="#ffffff">LA DÉTENTE</text><text x="500" y="690" font-family="'Liberation Sans','DejaVu Sans',Arial,sans-serif" font-weight="bold" font-size="34" letter-spacing="7" text-anchor="middle" fill="#c9ccd3">TIR · BALL-TRAP · CHASSE</text></g>
    </g>
    <g>
      <circle cx="430" cy="1430" r="0.40019200000000005" fill="#ffffff"/>
      <circle cx="430" cy="1430" r="199.8" fill="none" stroke="#b9bec6" stroke-width="3" stroke-dasharray="10 9"/>
      <g transform="translate(430,1430) scale(0.74) translate(-500,-500)"><circle cx="500" cy="500" r="486" fill="#d72a25"/><circle cx="500" cy="500" r="486" fill="none" stroke="#7c1311" stroke-width="6"/><circle cx="500" cy="500" r="452" fill="url(#camo_st3)"/><circle cx="500" cy="500" r="452" fill="none" stroke="#e9e1c9" stroke-width="5" stroke-dasharray="2 11" stroke-linecap="round" opacity="0.9"/><circle cx="500" cy="500" r="404" fill="none" stroke="#e9e1c9" stroke-width="3" stroke-dasharray="2 12" stroke-linecap="round" opacity="0.65"/><g transform="translate(500,560) scale(1.4) translate(-183,-77)"><g fill="#3c451f" stroke="#e9e1c9" stroke-width="4" stroke-linejoin="round">
    <path d="M0,56 L58,40 L114,48 L114,98 L74,100 L44,114 L10,100 Z"/>
    <rect x="108" y="40" width="48" height="48" rx="5"/>
    <rect x="150" y="40" width="210" height="11" rx="3"/>
    <rect x="150" y="56" width="210" height="11" rx="3"/>
    <rect x="150" y="72" width="74" height="17" rx="7"/>
    <rect x="354" y="38" width="11" height="31" rx="2"/>
  </g></g><g transform="translate(742,360)"><ellipse cx="0" cy="0" rx="46" ry="17" fill="url(#clay_st3)" stroke="#7a3a00" stroke-width="2"/><ellipse cx="0" cy="-4" rx="30" ry="9" fill="#ffd9a0" opacity="0.55"/>
      <g stroke="#c25a00" stroke-width="5" stroke-linecap="round" opacity="0.8"><line x1="55" y1="-12" x2="92" y2="-20"/><line x1="55" y1="2" x2="96" y2="2"/><line x1="55" y1="14" x2="90" y2="24"/></g></g><g transform="translate(500,330) scale(1.5)">
      <path d="M0,56 C-31,26 -54,6 -54,-16 C-54,-37 -31,-47 -12,-31 C-6,-26 0,-17 0,-11 C0,-17 6,-26 12,-31 C31,-47 54,-37 54,-16 C54,6 31,26 0,56 Z" fill="url(#hht_st3)" stroke="#7c1311" stroke-width="2.5"/>
      
    </g><g font-family="'Liberation Sans','DejaVu Sans',Arial,sans-serif" font-weight="bold" font-size="50" fill="#e9e1c9" text-anchor="middle"><text x="109.8" y="412.4" transform="rotate(-75.00 109.8 395.4)">T</text><text x="124.2" y="368.8" transform="rotate(-68.48 124.2 351.8)">I</text><text x="143.4" y="327.1" transform="rotate(-61.96 143.4 310.1)">R</text><text x="195.5" y="251.5" transform="rotate(-48.91 195.5 234.5)">·</text><text x="263.3" y="189.6" transform="rotate(-35.87 263.3 172.6)">B</text><text x="302.0" y="164.8" transform="rotate(-29.35 302.0 147.8)">A</text><text x="343.3" y="144.6" transform="rotate(-22.83 343.3 127.6)">L</text><text x="386.6" y="129.2" transform="rotate(-16.30 386.6 112.2)">L</text><text x="431.4" y="118.9" transform="rotate(-9.78 431.4 101.9)">-</text><text x="477.0" y="113.7" transform="rotate(-3.26 477.0 96.7)">T</text><text x="523.0" y="113.7" transform="rotate(3.26 523.0 96.7)">R</text><text x="568.6" y="118.9" transform="rotate(9.78 568.6 101.9)">A</text><text x="613.4" y="129.2" transform="rotate(16.30 613.4 112.2)">P</text><text x="698.0" y="164.8" transform="rotate(29.35 698.0 147.8)">·</text><text x="772.4" y="218.6" transform="rotate(42.39 772.4 201.6)">C</text><text x="804.5" y="251.5" transform="rotate(48.91 804.5 234.5)">H</text><text x="832.7" y="287.8" transform="rotate(55.43 832.7 270.8)">A</text><text x="856.6" y="327.1" transform="rotate(61.96 856.6 310.1)">S</text><text x="875.8" y="368.8" transform="rotate(68.48 875.8 351.8)">S</text><text x="890.2" y="412.4" transform="rotate(75.00 890.2 395.4)">E</text></g>
    <path d="M320,752 L286,766 L286,854 L320,834 Z" fill="#7c1311"/>
    <path d="M680,752 L714,766 L714,854 L680,834 Z" fill="#7c1311"/><path d="M320,744 L680,744 L680,840 L320,840 Z" fill="#d72a25" stroke="#7c1311" stroke-width="3"/><text x="500" y="811" font-family="'Liberation Sans','DejaVu Sans',Arial,sans-serif" font-weight="bold" font-size="58" letter-spacing="3" text-anchor="middle" fill="#ffffff">LA DÉTENTE</text><polygon points="214.0,486.0 217.7,494.9 227.3,495.7 220.0,501.9 222.2,511.3 214.0,506.3 205.8,511.3 208.0,501.9 200.7,495.7 210.3,494.9" fill="#e9e1c9"/><polygon points="786.0,486.0 789.7,494.9 799.3,495.7 792.0,501.9 794.2,511.3 786.0,506.3 777.8,511.3 780.0,501.9 772.7,495.7 782.3,494.9" fill="#e9e1c9"/></g>
    </g>
    <g>
      <circle cx="1170" cy="1430" r="0.40019200000000005" fill="#ffffff"/>
      <circle cx="1170" cy="1430" r="199.8" fill="none" stroke="#b9bec6" stroke-width="3" stroke-dasharray="10 9"/>
      <g transform="translate(1170,1430) scale(0.74) translate(-500,-500)"><circle cx="500" cy="500" r="488" fill="url(#ring_st4)"/><circle cx="500" cy="500" r="488" fill="none" stroke="#9c7b22" stroke-width="3"/><circle cx="500" cy="500" r="470" fill="none" stroke="#fff3c4" stroke-width="2" opacity="0.7"/><circle cx="500" cy="500" r="430" fill="url(#bg_st4)"/><circle cx="500" cy="500" r="430" fill="none" stroke="#9c7b22" stroke-width="6"/><circle cx="500" cy="500" r="426" fill="none" stroke="#fff3c4" stroke-width="2" opacity="0.5"/><path d="M150,300 A488,488 0 0 1 850,300" fill="none" stroke="#ffffff" stroke-width="10" stroke-linecap="round" opacity="0.18"/><circle cx="949.0" cy="500.0" r="6" fill="#9c7b22"/><circle cx="888.8" cy="724.5" r="6" fill="#9c7b22"/><circle cx="724.5" cy="888.8" r="6" fill="#9c7b22"/><circle cx="500.0" cy="949.0" r="6" fill="#9c7b22"/><circle cx="275.5" cy="888.8" r="6" fill="#9c7b22"/><circle cx="111.2" cy="724.5" r="6" fill="#9c7b22"/><circle cx="51.0" cy="500.0" r="6" fill="#9c7b22"/><circle cx="111.2" cy="275.5" r="6" fill="#9c7b22"/><circle cx="275.5" cy="111.2" r="6" fill="#9c7b22"/><circle cx="500.0" cy="51.0" r="6" fill="#9c7b22"/><circle cx="724.5" cy="111.2" r="6" fill="#9c7b22"/><circle cx="888.8" cy="275.5" r="6" fill="#9c7b22"/><g transform="translate(500,545) rotate(-29) scale(1.3) translate(-183,-88)"><g fill="url(#mg_st4)" stroke="#9c7b22" stroke-width="2" stroke-linejoin="round">
    <polygon points="0,44 62,30 62,74 34,82 0,72"/>
    <rect x="60" y="30" width="130" height="38" rx="3"/>
    <rect x="92" y="19" width="100" height="10" rx="3"/>
    <polygon points="118,68 140,68 153,116 126,118"/>
    <path d="M150,68 L190,68 L202,156 Q184,162 166,156 Z"/>
    <rect x="190" y="38" width="76" height="26" rx="5"/>
    <rect x="266" y="46" width="96" height="10" rx="3"/>
    <polygon points="300,21 310,21 308,46 302,46"/>
    <rect x="352" y="43" width="15" height="15" rx="2"/>
  </g></g><g transform="translate(500,545) rotate(29) scale(1.3) translate(-183,-77)"><g fill="url(#mg_st4)" stroke="#9c7b22" stroke-width="2" stroke-linejoin="round">
    <path d="M0,56 L58,40 L114,48 L114,98 L74,100 L44,114 L10,100 Z"/>
    <rect x="108" y="40" width="48" height="48" rx="5"/>
    <rect x="150" y="40" width="210" height="11" rx="3"/>
    <rect x="150" y="56" width="210" height="11" rx="3"/>
    <rect x="150" y="72" width="74" height="17" rx="7"/>
    <rect x="354" y="38" width="11" height="31" rx="2"/>
  </g></g><g transform="translate(500,540) scale(1.85)">
      <path d="M0,56 C-31,26 -54,6 -54,-16 C-54,-37 -31,-47 -12,-31 C-6,-26 0,-17 0,-11 C0,-17 6,-26 12,-31 C31,-47 54,-37 54,-16 C54,6 31,26 0,56 Z" fill="url(#hht_st4)" stroke="#8c0d15" stroke-width="2.5"/>
      <path d="M-30,-22 C-40,-6 -34,12 -16,22 C-30,4 -26,-12 -12,-22 C-22,-26 -27,-25 -30,-22 Z" fill="#ffffff" opacity="0.35"/>
    </g><g font-family="'Liberation Sans','DejaVu Sans',Arial,sans-serif" font-weight="bold" font-size="46" fill="#fff3c4" text-anchor="middle"><text x="121.4" y="414.2" transform="rotate(-75.00 121.4 398.5)">T</text><text x="135.3" y="371.8" transform="rotate(-68.48 135.3 356.2)">I</text><text x="154.0" y="331.3" transform="rotate(-61.96 154.0 315.7)">R</text><text x="204.5" y="258.0" transform="rotate(-48.91 204.5 242.4)">·</text><text x="270.3" y="198.0" transform="rotate(-35.87 270.3 182.3)">B</text><text x="307.9" y="173.9" transform="rotate(-29.35 307.9 158.3)">A</text><text x="347.9" y="154.3" transform="rotate(-22.83 347.9 138.7)">L</text><text x="390.0" y="139.4" transform="rotate(-16.30 390.0 123.8)">L</text><text x="433.4" y="129.3" transform="rotate(-9.78 433.4 113.7)">-</text><text x="477.7" y="124.3" transform="rotate(-3.26 477.7 108.6)">T</text><text x="522.3" y="124.3" transform="rotate(3.26 522.3 108.6)">R</text><text x="566.6" y="129.3" transform="rotate(9.78 566.6 113.7)">A</text><text x="610.0" y="139.4" transform="rotate(16.30 610.0 123.8)">P</text><text x="692.1" y="173.9" transform="rotate(29.35 692.1 158.3)">·</text><text x="764.3" y="226.1" transform="rotate(42.39 764.3 210.5)">C</text><text x="795.5" y="258.0" transform="rotate(48.91 795.5 242.4)">H</text><text x="822.8" y="293.2" transform="rotate(55.43 822.8 277.6)">A</text><text x="846.0" y="331.3" transform="rotate(61.96 846.0 315.7)">S</text><text x="864.7" y="371.8" transform="rotate(68.48 864.7 356.2)">S</text><text x="878.6" y="414.2" transform="rotate(75.00 878.6 398.5)">E</text></g><linearGradient id="rib_st4" x1="0" y1="0" x2="0" y2="1"><stop offset="0%" stop-color="#fff3c4"/><stop offset="100%" stop-color="#d4af37"/></linearGradient>
    <path d="M310,760 L276,774 L276,862 L310,842 Z" fill="#8c0d15"/>
    <path d="M690,760 L724,774 L724,862 L690,842 Z" fill="#8c0d15"/><path d="M310,752 L690,752 L690,848 L310,848 Z" fill="url(#rib_st4)" stroke="#8c0d15" stroke-width="3"/><text x="500" y="819" font-family="'Liberation Sans','DejaVu Sans',Arial,sans-serif" font-weight="bold" font-size="58" letter-spacing="3" text-anchor="middle" fill="#15140f">LA DÉTENTE</text></g>
    </g>
  </svg>