<svg xmlns="http://www.w3.org/2000/svg" xmlns:xlink="http://www.w3.org/1999/xlink" width="2000" height="1240" viewBox="0 0 2000 1240">
   <defs><radialGradient id="bg_msign" cx="50%" cy="38%" r="70%"><stop offset="0%" stop-color="#16141b"/><stop offset="100%" stop-color="#08070b"/></radialGradient><linearGradient id="ring_msign" x1="0" y1="0" x2="0" y2="1"><stop offset="0%" stop-color="#fff3c4"/><stop offset="45%" stop-color="#d4af37"/><stop offset="100%" stop-color="#9c7b22"/></linearGradient><linearGradient id="mg_msign" x1="0" y1="0" x2="0" y2="1">
      <stop offset="0%" stop-color="#fff3c4"/><stop offset="50%" stop-color="#d4af37"/><stop offset="100%" stop-color="#9c7b22"/>
    </linearGradient><radialGradient id="hht_msign" cx="38%" cy="30%" r="80%">
      <stop offset="0%" stop-color="#ff7a7e"/>
      <stop offset="45%" stop-color="#e51f2b"/>
      <stop offset="100%" stop-color="#8c0d15"/>
    </radialGradient>
     <linearGradient id="wall" x1="0" y1="0" x2="0" y2="1"><stop offset="0%" stop-color="#2a2b30"/><stop offset="100%" stop-color="#17181c"/></linearGradient>
     <linearGradient id="board" x1="0" y1="0" x2="0" y2="1"><stop offset="0%" stop-color="#141318"/><stop offset="100%" stop-color="#090810"/></linearGradient>
     <linearGradient id="frame" x1="0" y1="0" x2="0" y2="1"><stop offset="0%" stop-color="#f6e9b0"/><stop offset="50%" stop-color="#c69b33"/><stop offset="100%" stop-color="#8a6b1f"/></linearGradient>
   </defs>
   <rect width="2000" height="1240" fill="url(#wall)"/>
   <g opacity="0.10" stroke="#000" stroke-width="2"><line x1="0" y1="0" x2="2000" y2="0"/><line x1="0" y1="150" x2="2000" y2="150"/><line x1="0" y1="300" x2="2000" y2="300"/><line x1="0" y1="450" x2="2000" y2="450"/><line x1="0" y1="600" x2="2000" y2="600"/><line x1="0" y1="750" x2="2000" y2="750"/><line x1="0" y1="900" x2="2000" y2="900"/><line x1="0" y1="1050" x2="2000" y2="1050"/><line x1="0" y1="1200" x2="2000" y2="1200"/><line x1="0" y1="0" x2="0" y2="1240"/><line x1="150" y1="0" x2="150" y2="1240"/><line x1="300" y1="0" x2="300" y2="1240"/><line x1="450" y1="0" x2="450" y2="1240"/><line x1="600" y1="0" x2="600" y2="1240"/><line x1="750" y1="0" x2="750" y2="1240"/><line x1="900" y1="0" x2="900" y2="1240"/><line x1="1050" y1="0" x2="1050" y2="1240"/><line x1="1200" y1="0" x2="1200" y2="1240"/><line x1="1350" y1="0" x2="1350" y2="1240"/><line x1="1500" y1="0" x2="1500" y2="1240"/><line x1="1650" y1="0" x2="1650" y2="1240"/><line x1="1800" y1="0" x2="1800" y2="1240"/><line x1="1950" y1="0" x2="1950" y2="1240"/></g>
   <!-- potence -->
   <rect x="150" y="120" width="34" height="60" fill="#0c0d10"/>
   <rect x="120" y="170" width="1760" height="900" rx="20" fill="url(#frame)"/>
   <rect x="140" y="190" width="1720" height="860" rx="14" fill="url(#board)" stroke="#000" stroke-width="2"/>
   <rect x="140" y="190" width="1720" height="860" rx="14" fill="none" stroke="#c69b33" stroke-width="2" opacity="0.5"/>
   <g transform="translate(560,620) scale(0.82) translate(-500,-500)"><circle cx="500" cy="500" r="488" fill="url(#ring_msign)"/><circle cx="500" cy="500" r="488" fill="none" stroke="#9c7b22" stroke-width="3"/><circle cx="500" cy="500" r="470" fill="none" stroke="#fff3c4" stroke-width="2" opacity="0.7"/><circle cx="500" cy="500" r="430" fill="url(#bg_msign)"/><circle cx="500" cy="500" r="430" fill="none" stroke="#9c7b22" stroke-width="6"/><circle cx="500" cy="500" r="426" fill="none" stroke="#fff3c4" stroke-width="2" opacity="0.5"/><path d="M150,300 A488,488 0 0 1 850,300" fill="none" stroke="#ffffff" stroke-width="10" stroke-linecap="round" opacity="0.18"/><circle cx="949.0" cy="500.0" r="6" fill="#9c7b22"/><circle cx="888.8" cy="724.5" r="6" fill="#9c7b22"/><circle cx="724.5" cy="888.8" r="6" fill="#9c7b22"/><circle cx="500.0" cy="949.0" r="6" fill="#9c7b22"/><circle cx="275.5" cy="888.8" r="6" fill="#9c7b22"/><circle cx="111.2" cy="724.5" r="6" fill="#9c7b22"/><circle cx="51.0" cy="500.0" r="6" fill="#9c7b22"/><circle cx="111.2" cy="275.5" r="6" fill="#9c7b22"/><circle cx="275.5" cy="111.2" r="6" fill="#9c7b22"/><circle cx="500.0" cy="51.0" r="6" fill="#9c7b22"/><circle cx="724.5" cy="111.2" r="6" fill="#9c7b22"/><circle cx="888.8" cy="275.5" r="6" fill="#9c7b22"/><g transform="translate(500,545) rotate(-29) scale(1.3) translate(-183,-88)"><g fill="url(#mg_msign)" stroke="#9c7b22" stroke-width="2" stroke-linejoin="round">
    <polygon points="0,44 62,30 62,74 34,82 0,72"/>
    <rect x="60" y="30" width="130" height="38" rx="3"/>
    <rect x="92" y="19" width="100" height="10" rx="3"/>
    <polygon points="118,68 140,68 153,116 126,118"/>
    <path d="M150,68 L190,68 L202,156 Q184,162 166,156 Z"/>
    <rect x="190" y="38" width="76" height="26" rx="5"/>
    <rect x="266" y="46" width="96" height="10" rx="3"/>
    <polygon points="300,21 310,21 308,46 302,46"/>
    <rect x="352" y="43" width="15" height="15" rx="2"/>
  </g></g><g transform="translate(500,545) rotate(29) scale(1.3) translate(-183,-77)"><g fill="url(#mg_msign)" stroke="#9c7b22" stroke-width="2" stroke-linejoin="round">
    <path d="M0,56 L58,40 L114,48 L114,98 L74,100 L44,114 L10,100 Z"/>
    <rect x="108" y="40" width="48" height="48" rx="5"/>
    <rect x="150" y="40" width="210" height="11" rx="3"/>
    <rect x="150" y="56" width="210" height="11" rx="3"/>
    <rect x="150" y="72" width="74" height="17" rx="7"/>
    <rect x="354" y="38" width="11" height="31" rx="2"/>
  </g></g><g transform="translate(500,540) scale(1.85)">
      <path d="M0,56 C-31,26 -54,6 -54,-16 C-54,-37 -31,-47 -12,-31 C-6,-26 0,-17 0,-11 C0,-17 6,-26 12,-31 C31,-47 54,-37 54,-16 C54,6 31,26 0,56 Z" fill="url(#hht_msign)" stroke="#8c0d15" stroke-width="2.5"/>
      <path d="M-30,-22 C-40,-6 -34,12 -16,22 C-30,4 -26,-12 -12,-22 C-22,-26 -27,-25 -30,-22 Z" fill="#ffffff" opacity="0.35"/>
    </g><g font-family="'Liberation Sans','DejaVu Sans',Arial,sans-serif" font-weight="bold" font-size="46" fill="#fff3c4" text-anchor="middle"><text x="121.4" y="414.2" transform="rotate(-75.00 121.4 398.5)">T</text><text x="135.3" y="371.8" transform="rotate(-68.48 135.3 356.2)">I</text><text x="154.0" y="331.3" transform="rotate(-61.96 154.0 315.7)">R</text><text x="204.5" y="258.0" transform="rotate(-48.91 204.5 242.4)">·</text><text x="270.3" y="198.0" transform="rotate(-35.87 270.3 182.3)">B</text><text x="307.9" y="173.9" transform="rotate(-29.35 307.9 158.3)">A</text><text x="347.9" y="154.3" transform="rotate(-22.83 347.9 138.7)">L</text><text x="390.0" y="139.4" transform="rotate(-16.30 390.0 123.8)">L</text><text x="433.4" y="129.3" transform="rotate(-9.78 433.4 113.7)">-</text><text x="477.7" y="124.3" transform="rotate(-3.26 477.7 108.6)">T</text><text x="522.3" y="124.3" transform="rotate(3.26 522.3 108.6)">R</text><text x="566.6" y="129.3" transform="rotate(9.78 566.6 113.7)">A</text><text x="610.0" y="139.4" transform="rotate(16.30 610.0 123.8)">P</text><text x="692.1" y="173.9" transform="rotate(29.35 692.1 158.3)">·</text><text x="764.3" y="226.1" transform="rotate(42.39 764.3 210.5)">C</text><text x="795.5" y="258.0" transform="rotate(48.91 795.5 242.4)">H</text><text x="822.8" y="293.2" transform="rotate(55.43 822.8 277.6)">A</text><text x="846.0" y="331.3" transform="rotate(61.96 846.0 315.7)">S</text><text x="864.7" y="371.8" transform="rotate(68.48 864.7 356.2)">S</text><text x="878.6" y="414.2" transform="rotate(75.00 878.6 398.5)">E</text></g><linearGradient id="rib_msign" x1="0" y1="0" x2="0" y2="1"><stop offset="0%" stop-color="#fff3c4"/><stop offset="100%" stop-color="#d4af37"/></linearGradient>
    <path d="M310,760 L276,774 L276,862 L310,842 Z" fill="#8c0d15"/>
    <path d="M690,760 L724,774 L724,862 L690,842 Z" fill="#8c0d15"/><path d="M310,752 L690,752 L690,848 L310,848 Z" fill="url(#rib_msign)" stroke="#8c0d15" stroke-width="3"/><text x="500" y="819" font-family="'Liberation Sans','DejaVu Sans',Arial,sans-serif" font-weight="bold" font-size="58" letter-spacing="3" text-anchor="middle" fill="#15140f">LA DÉTENTE</text></g>
   <g transform="translate(1100,0)">
     <text x="0" y="500" font-family="'Liberation Sans','DejaVu Sans',Arial,sans-serif" font-weight="bold" font-size="170" letter-spacing="2" fill="#f6e9b0">LA</text>
     <text x="0" y="680" font-family="'Liberation Sans','DejaVu Sans',Arial,sans-serif" font-weight="bold" font-size="170" letter-spacing="2" fill="#f6e9b0">DÉTENTE</text>
     <rect x="6" y="540" width="640" height="6" fill="#e51f2b"/>
     <text x="8" y="770" font-family="'Liberation Sans','DejaVu Sans',Arial,sans-serif" font-weight="bold" font-size="33" letter-spacing="5" fill="#cdbd86">ARMURERIE · TIR SPORTIF · CHASSE</text>
   </g>
   <!-- spots -->
   <g opacity="0.10" fill="#fff"><polygon points="500,170 380,170 240,420 560,420"/><polygon points="1500,170 1620,170 1760,420 1440,420"/></g>
  </svg>