<svg xmlns="http://www.w3.org/2000/svg" xmlns:xlink="http://www.w3.org/1999/xlink" width="1600" height="1600" viewBox="0 0 1000 1000">
  <defs><linearGradient id="bg_ar15vectornoirRouge" x1="0" y1="0" x2="0" y2="1"><stop offset="0%" stop-color="#1a1c22"/><stop offset="100%" stop-color="#0a0b0e"/></linearGradient><radialGradient id="hht_ar15vectornoirRouge" cx="38%" cy="30%" r="80%">
      <stop offset="0%" stop-color="#ff6a6f"/>
      <stop offset="45%" stop-color="#e51f2b"/>
      <stop offset="100%" stop-color="#8c0d15"/>
    </radialGradient></defs>
  <path d="M500,40 L880,235 L880,640 C880,820 700,920 500,968 C300,920 120,820 120,640 L120,235 Z" fill="url(#bg_ar15vectornoirRouge)" stroke="#e51f2b" stroke-width="14" stroke-linejoin="round"/><path d="M500,40 L880,235 L880,640 C880,820 700,920 500,968 C300,920 120,820 120,640 L120,235 Z" fill="none" stroke="#efe7d2" stroke-width="3" stroke-linejoin="round" opacity="0.35" transform="translate(0,0) scale(1)"/><path d="M500,92 L832,262 L832,628 C832,786 676,876 500,920 C324,876 168,786 168,628 L168,262 Z" fill="none" stroke="#e51f2b" stroke-width="4" opacity="0.5"/>
  <g transform="translate(500,520) scale(1.42) translate(-183,-88)"><g fill="#d7dce3" stroke="none" stroke-width="0" stroke-linejoin="round">
    <polygon points="0,44 62,30 62,74 34,82 0,72"/>
    <rect x="60" y="30" width="130" height="38" rx="3"/>
    <rect x="92" y="19" width="100" height="10" rx="3"/>
    <polygon points="118,68 140,68 153,116 126,118"/>
    <path d="M150,68 L190,68 L202,156 Q184,162 166,156 Z"/>
    <rect x="190" y="38" width="76" height="26" rx="5"/>
    <rect x="266" y="46" width="96" height="10" rx="3"/>
    <polygon points="300,21 310,21 308,46 302,46"/>
    <rect x="352" y="43" width="15" height="15" rx="2"/>
  </g></g><g transform="translate(500,360) scale(1.55)">
      <path d="M0,56 C-31,26 -54,6 -54,-16 C-54,-37 -31,-47 -12,-31 C-6,-26 0,-17 0,-11 C0,-17 6,-26 12,-31 C31,-47 54,-37 54,-16 C54,6 31,26 0,56 Z" fill="url(#hht_ar15vectornoirRouge)" stroke="#8c0d15" stroke-width="2.5"/>
      
    </g>
  <rect x="250" y="742" width="500" height="86" rx="14" fill="#e51f2b"/><text x="500" y="802" font-family="'Liberation Sans','DejaVu Sans',Arial,sans-serif" font-weight="bold" font-size="64" letter-spacing="4" text-anchor="middle" fill="#ffffff">LA DÉTENTE</text><text x="500" y="690" font-family="'Liberation Sans','DejaVu Sans',Arial,sans-serif" font-weight="bold" font-size="34" letter-spacing="7" text-anchor="middle" fill="#c9ccd3">TIR · BALL-TRAP · CHASSE</text>
</svg>