<svg xmlns="http://www.w3.org/2000/svg" xmlns:xlink="http://www.w3.org/1999/xlink" width="1600" height="1600" viewBox="0 0 1000 1000">
  <defs><radialGradient id="bg_glockpatchnoirOr" cx="50%" cy="42%" r="62%"><stop offset="0%" stop-color="#16141b"/><stop offset="100%" stop-color="#08070b"/></radialGradient><radialGradient id="hht_glockpatchnoirOr" cx="38%" cy="30%" r="80%">
      <stop offset="0%" stop-color="#ff7a7e"/>
      <stop offset="45%" stop-color="#e51f2b"/>
      <stop offset="100%" stop-color="#8c0d15"/>
    </radialGradient></defs>
  <circle cx="500" cy="500" r="486" fill="#e51f2b"/><circle cx="500" cy="500" r="486" fill="none" stroke="#8c0d15" stroke-width="6"/><circle cx="500" cy="500" r="452" fill="url(#bg_glockpatchnoirOr)"/><circle cx="500" cy="500" r="452" fill="none" stroke="#d9c373" stroke-width="5" stroke-dasharray="2 11" stroke-linecap="round" opacity="0.9"/><circle cx="500" cy="500" r="404" fill="none" stroke="#d9c373" stroke-width="3" stroke-dasharray="2 12" stroke-linecap="round" opacity="0.65"/>
  <g transform="translate(500,545) scale(1.7) translate(-120,-86)"><g fill="#c69b33" stroke="#d9c373" stroke-width="4" stroke-linejoin="round">
    <path d="M40,8 L196,8 L210,18 L210,42 L40,42 Z"/>
    <rect x="40" y="42" width="124" height="17" rx="2"/>
    <polygon points="40,42 98,42 84,156 34,164 20,122 40,88"/>
    <path d="M150,59 q30,2 30,30 l-12,0 q-2,-18 -22,-18 Z"/>
    <rect x="206" y="18" width="14" height="15" rx="2"/>
  </g></g><g transform="translate(500,330) scale(1.5)">
      <path d="M0,56 C-31,26 -54,6 -54,-16 C-54,-37 -31,-47 -12,-31 C-6,-26 0,-17 0,-11 C0,-17 6,-26 12,-31 C31,-47 54,-37 54,-16 C54,6 31,26 0,56 Z" fill="url(#hht_glockpatchnoirOr)" stroke="#8c0d15" stroke-width="2.5"/>
      
    </g>
  <g font-family="'Liberation Sans','DejaVu Sans',Arial,sans-serif" font-weight="bold" font-size="50" fill="#d9c373" text-anchor="middle"><text x="109.8" y="412.4" transform="rotate(-75.00 109.8 395.4)">T</text><text x="124.2" y="368.8" transform="rotate(-68.48 124.2 351.8)">I</text><text x="143.4" y="327.1" transform="rotate(-61.96 143.4 310.1)">R</text><text x="195.5" y="251.5" transform="rotate(-48.91 195.5 234.5)">·</text><text x="263.3" y="189.6" transform="rotate(-35.87 263.3 172.6)">B</text><text x="302.0" y="164.8" transform="rotate(-29.35 302.0 147.8)">A</text><text x="343.3" y="144.6" transform="rotate(-22.83 343.3 127.6)">L</text><text x="386.6" y="129.2" transform="rotate(-16.30 386.6 112.2)">L</text><text x="431.4" y="118.9" transform="rotate(-9.78 431.4 101.9)">-</text><text x="477.0" y="113.7" transform="rotate(-3.26 477.0 96.7)">T</text><text x="523.0" y="113.7" transform="rotate(3.26 523.0 96.7)">R</text><text x="568.6" y="118.9" transform="rotate(9.78 568.6 101.9)">A</text><text x="613.4" y="129.2" transform="rotate(16.30 613.4 112.2)">P</text><text x="698.0" y="164.8" transform="rotate(29.35 698.0 147.8)">·</text><text x="772.4" y="218.6" transform="rotate(42.39 772.4 201.6)">C</text><text x="804.5" y="251.5" transform="rotate(48.91 804.5 234.5)">H</text><text x="832.7" y="287.8" transform="rotate(55.43 832.7 270.8)">A</text><text x="856.6" y="327.1" transform="rotate(61.96 856.6 310.1)">S</text><text x="875.8" y="368.8" transform="rotate(68.48 875.8 351.8)">S</text><text x="890.2" y="412.4" transform="rotate(75.00 890.2 395.4)">E</text></g>
    <path d="M320,752 L286,766 L286,854 L320,834 Z" fill="#8c0d15"/>
    <path d="M680,752 L714,766 L714,854 L680,834 Z" fill="#8c0d15"/><path d="M320,744 L680,744 L680,840 L320,840 Z" fill="#e51f2b" stroke="#8c0d15" stroke-width="3"/><text x="500" y="811" font-family="'Liberation Sans','DejaVu Sans',Arial,sans-serif" font-weight="bold" font-size="58" letter-spacing="3" text-anchor="middle" fill="#ffffff">LA DÉTENTE</text><polygon points="214.0,486.0 217.7,494.9 227.3,495.7 220.0,501.9 222.2,511.3 214.0,506.3 205.8,511.3 208.0,501.9 200.7,495.7 210.3,494.9" fill="#d9c373"/><polygon points="786.0,486.0 789.7,494.9 799.3,495.7 792.0,501.9 794.2,511.3 786.0,506.3 777.8,511.3 780.0,501.9 772.7,495.7 782.3,494.9" fill="#d9c373"/>
</svg>