<svg xmlns="http://www.w3.org/2000/svg" xmlns:xlink="http://www.w3.org/1999/xlink" width="1600" height="1600" viewBox="0 0 1000 1000">
  <defs><linearGradient id="bg_glockvectornoirRouge" x1="0" y1="0" x2="0" y2="1"><stop offset="0%" stop-color="#1a1c22"/><stop offset="100%" stop-color="#0a0b0e"/></linearGradient><radialGradient id="hht_glockvectornoirRouge" cx="38%" cy="30%" r="80%">
      <stop offset="0%" stop-color="#ff6a6f"/>
      <stop offset="45%" stop-color="#e51f2b"/>
      <stop offset="100%" stop-color="#8c0d15"/>
    </radialGradient></defs>
  <path d="M500,40 L880,235 L880,640 C880,820 700,920 500,968 C300,920 120,820 120,640 L120,235 Z" fill="url(#bg_glockvectornoirRouge)" stroke="#e51f2b" stroke-width="14" stroke-linejoin="round"/><path d="M500,40 L880,235 L880,640 C880,820 700,920 500,968 C300,920 120,820 120,640 L120,235 Z" fill="none" stroke="#efe7d2" stroke-width="3" stroke-linejoin="round" opacity="0.35" transform="translate(0,0) scale(1)"/><path d="M500,92 L832,262 L832,628 C832,786 676,876 500,920 C324,876 168,786 168,628 L168,262 Z" fill="none" stroke="#e51f2b" stroke-width="4" opacity="0.5"/>
  <g transform="translate(500,545) scale(1.7) translate(-120,-86)"><g fill="#d7dce3" stroke="none" stroke-width="0" stroke-linejoin="round">
    <path d="M40,8 L196,8 L210,18 L210,42 L40,42 Z"/>
    <rect x="40" y="42" width="124" height="17" rx="2"/>
    <polygon points="40,42 98,42 84,156 34,164 20,122 40,88"/>
    <path d="M150,59 q30,2 30,30 l-12,0 q-2,-18 -22,-18 Z"/>
    <rect x="206" y="18" width="14" height="15" rx="2"/>
  </g></g><g transform="translate(500,330) scale(1.5)">
      <path d="M0,56 C-31,26 -54,6 -54,-16 C-54,-37 -31,-47 -12,-31 C-6,-26 0,-17 0,-11 C0,-17 6,-26 12,-31 C31,-47 54,-37 54,-16 C54,6 31,26 0,56 Z" fill="url(#hht_glockvectornoirRouge)" stroke="#8c0d15" stroke-width="2.5"/>
      
    </g>
  <rect x="250" y="742" width="500" height="86" rx="14" fill="#e51f2b"/><text x="500" y="802" font-family="'Liberation Sans','DejaVu Sans',Arial,sans-serif" font-weight="bold" font-size="64" letter-spacing="4" text-anchor="middle" fill="#ffffff">LA DÉTENTE</text><text x="500" y="690" font-family="'Liberation Sans','DejaVu Sans',Arial,sans-serif" font-weight="bold" font-size="34" letter-spacing="7" text-anchor="middle" fill="#c9ccd3">TIR · BALL-TRAP · CHASSE</text>
</svg>